<svg width="48" height="48" viewBox="0 0 48 48" fill="none" xmlns="http://www.w3.org/2000/svg">
<rect width="48" height="48" rx="24" fill="#FEF1EA"/>
<path fill-rule="evenodd" clip-rule="evenodd" d="M16.166 19.055C19.0611 19.019 21.8448 17.9335 24 16C26.155 17.9338 28.9387 19.0197 31.834 19.056C31.944 19.706 32 20.376 32 21.057C32 26.282 28.66 30.727 24 32.374C19.34 30.726 16 26.281 16 21.056C16 20.374 16.057 19.706 16.166 19.055ZM27.707 22.763C27.8892 22.5744 27.99 22.3218 27.9877 22.0596C27.9854 21.7974 27.8802 21.5466 27.6948 21.3612C27.5094 21.1758 27.2586 21.0706 26.9964 21.0683C26.7342 21.066 26.4816 21.1668 26.293 21.349L23 24.642L21.707 23.349C21.5184 23.1668 21.2658 23.066 21.0036 23.0683C20.7414 23.0706 20.4906 23.1758 20.3052 23.3612C20.1198 23.5466 20.0146 23.7974 20.0123 24.0596C20.01 24.3218 20.1108 24.5744 20.293 24.763L22.293 26.763C22.4805 26.9505 22.7348 27.0558 23 27.0558C23.2652 27.0558 23.5195 26.9505 23.707 26.763L27.707 22.763Z" fill="#F7752A"/>
</svg>
