<svg width="48" height="48" viewBox="0 0 48 48" fill="none" xmlns="http://www.w3.org/2000/svg">
<path d="M27.6129 17.7051H20.3871C16.6813 17.7051 13.6774 20.7089 13.6774 24.4147V39.3825H16.7742V24.9309C16.7742 22.6506 18.623 20.8018 20.9032 20.8018H27.0968C29.377 20.8018 31.2258 22.6506 31.2258 24.9309V39.3825H34.3226V24.4147C34.3226 20.7089 31.3187 17.7051 27.6129 17.7051Z" fill="#FCAB1E"/>
<path d="M24 26.4792C21.5422 29.576 20.9384 32.6728 20.9384 32.6728C20.9384 32.6728 19.0638 30.7265 18.9048 30.6083C18.4031 33.3303 17.7704 35.7995 19.1985 37.4996C20.4501 38.9881 21.87 39.8986 24 39.8986C26.1301 39.8986 27.55 38.9881 28.8011 37.4996C30.2297 35.8 29.5969 33.3309 29.0947 30.6083C28.9358 30.7265 27.0612 32.6728 27.0612 32.6728C27.0612 32.6728 26.4578 29.576 24 26.4792Z" fill="#FCAB1E"/>
<path d="M40 7.89868H8V15.1245H9.03226V39.8986H17.2903V24.9309C17.2903 22.9392 18.9115 21.318 20.9032 21.318H27.0968C29.0885 21.318 30.7097 22.9392 30.7097 24.9309V39.8986H38.9677V15.1245H40V7.89868ZM10.0645 24.4148H13.1613V26.4793H10.0645V24.4148ZM10.0645 27.5116H13.1613V29.5761H10.0645V27.5116ZM10.0645 30.6083H13.1613V32.6728H10.0645V30.6083ZM10.0645 33.7051H13.1613V35.7696H10.0645V33.7051ZM13.2439 23.3825H10.0645V21.318H13.8684C13.5618 21.9606 13.3486 22.6532 13.2439 23.3825ZM10.0645 36.8019H13.1613V38.8664H10.0645V36.8019ZM27.0968 20.2858H20.9032C18.3417 20.2858 16.2581 22.3694 16.2581 24.9309V38.8664H14.1935V24.4148C14.1935 20.9996 16.9719 18.2213 20.3871 18.2213H27.6129C31.0281 18.2213 33.8064 20.9996 33.8064 24.4148V38.8664H31.7419V24.9309C31.7419 22.3694 29.6583 20.2858 27.0968 20.2858ZM34.8387 30.6083H37.9355V32.6728H34.8387V30.6083ZM34.8387 29.5761V27.5116H37.9355V29.5761H34.8387ZM34.8387 26.4793V24.4148H37.9355V26.4793H34.8387ZM34.7561 23.3825C34.6513 22.6532 34.4376 21.9606 34.1316 21.318H37.9355V23.3825H34.7561ZM33.5344 20.2858C32.9502 19.4502 32.1925 18.7472 31.3156 18.2213H37.9355V20.2858H33.5344ZM34.8387 38.8664V36.8019H35.8709V35.7696H34.8387V33.7051H37.9355V35.7696H36.9032V36.8019H37.9355V38.8664H34.8387ZM37.9355 17.189H27.6129H20.3871C20.2126 17.189 20.0423 17.2029 19.871 17.2153V17.189H12.129V18.2213H16.6844C15.8075 18.7472 15.0503 19.4502 14.4655 20.2858H10.0645V18.2213H11.0968V17.189H10.0645V15.1245H37.9355V17.189ZM38.9677 14.0922H9.03226V8.93094H38.9677V14.0922Z" fill="#141414"/>
<path d="M24 33.7051C22.2921 33.7051 20.9032 35.094 20.9032 36.8018C20.9032 38.5097 22.2921 39.8986 24 39.8986C25.7078 39.8986 27.0967 38.5097 27.0967 36.8018C27.0967 35.094 25.7078 33.7051 24 33.7051ZM24 38.8664C22.8614 38.8664 21.9355 37.9404 21.9355 36.8018C21.9355 35.6633 22.8614 34.7373 24 34.7373C25.1385 34.7373 26.0645 35.6633 26.0645 36.8018C26.0645 37.9404 25.1385 38.8664 24 38.8664Z" fill="#141414"/>
</svg>
