<svg width="48" height="48" viewBox="0 0 48 48" fill="none" xmlns="http://www.w3.org/2000/svg">
<g clip-path="url(#clip0_4046_7997)">
<path d="M40 28.7801V25.2882H37.987C37.8839 24.9599 37.7495 24.6457 37.593 24.3449L39.0188 22.9191L36.5495 20.4497L35.1237 21.8755C34.8234 21.7183 34.5091 21.5845 34.1804 21.4816V19.4685H30.6884V21.4816C30.3601 21.5846 30.0459 21.7191 29.7451 21.8755L28.3193 20.4497L25.8499 22.9191L27.2757 24.3449C27.1185 24.6452 26.9847 24.9594 26.8818 25.2882H24.8686V25.8703V28.1982V28.7802H26.8817C26.9847 29.1085 27.1192 29.4227 27.2756 29.7236L25.8498 31.1494L28.3191 33.6187L29.7449 32.1929C30.0453 32.3501 30.3595 32.4839 30.6883 32.5869V34.5999H34.1801V32.5869C34.5084 32.4838 34.8226 32.3494 35.1235 32.1929L36.5493 33.6187L39.0186 31.1494L37.5928 29.7236C37.75 29.4232 37.8838 29.109 37.9867 28.7802L40 28.7801ZM35.3442 28.1982H35.0986C34.6493 29.2248 33.6268 29.9442 32.4344 29.9442C31.242 29.9442 30.2193 29.2248 29.7701 28.1982H29.5246L29.5244 27.0342L29.5246 25.8703H29.7701C30.2195 24.8436 31.242 24.1242 32.4344 24.1242C33.6268 24.1242 34.6494 24.8436 35.0986 25.8703H35.3442V27.0336V28.1982Z" fill="#FCAB1E"/>
<path d="M16.7742 15.6145L19.8709 15.6145C20.7246 15.6145 21.4193 14.9198 21.4193 14.0661L21.4193 12.0016L15.2258 12.0016L15.2258 14.0661C15.2258 14.9198 15.9205 15.6145 16.7742 15.6145Z" fill="#FCAB1E"/>
<path fill-rule="evenodd" clip-rule="evenodd" d="M14.169 36.2986L22.4916 36.2986L22.4916 20.7502L14.169 20.7502L14.169 36.2986ZM13.169 37.2986L13.169 19.7502L23.4916 19.7502L23.4916 37.2986L13.169 37.2986Z" fill="#141414"/>
<path d="M9.54837 17.6791L11.0968 17.6791L11.0968 20.7759L25.5484 20.7759L25.5484 17.6791L27.0968 17.6791C27.9504 17.6791 28.6451 16.9844 28.6451 16.1307L28.6451 11.4856L7.99999 11.4856L7.99999 16.1307C7.99999 16.9844 8.6947 17.6791 9.54837 17.6791ZM24.5161 19.7436L12.129 19.7436L12.129 17.6791L24.5161 17.6791L24.5161 19.7436ZM27.6129 12.5178L27.6129 13.5501L22.4516 13.5501L22.4516 14.5823L27.6129 14.5823L27.6129 16.1307C27.6129 16.4156 27.3811 16.6468 27.0968 16.6468L25.5484 16.6468L11.0968 16.6468L9.54837 16.6468C9.26399 16.6468 9.03224 16.4156 9.03224 16.1307L9.03224 14.5823L14.1935 14.5823L14.1935 13.5501L9.03224 13.5501L9.03224 12.5178L27.6129 12.5178Z" fill="#141414"/>
</g>
<defs>
<clipPath id="clip0_4046_7997">
<rect width="32" height="32" fill="white" transform="translate(40 40.3921) rotate(180)"/>
</clipPath>
</defs>
</svg>
