<svg width="48" height="48" viewBox="0 0 48 48" fill="none" xmlns="http://www.w3.org/2000/svg">
<path d="M26.3451 23.7614C27.468 19.7614 24 22.0472 24 16.9043C24 16.9043 20.6309 19.7614 21.7537 23.7614C19.5074 23.19 18.9463 22.0472 18.9463 22.0472C16.7006 27.19 20.6309 30.0472 24 30.0472C27.3691 30.0472 31.2994 27.19 29.0537 22.0472C29.0537 22.0472 28.5914 23.19 26.3451 23.7614Z" fill="#FCAB1E"/>
<path d="M36.5714 33.1186V23.9758H38.8571V35.4043L40 36.5472V10.2615H8V36.5472H40L38.8571 35.4043H9.14286V23.9758H11.4286V33.1186H16.5714H18.8571H20.5714H22.8571H24.5714H26.8571H28.5714H30.8571H36.5714L35.4286 31.9758H32.4663C32.5303 31.7963 32.5714 31.6055 32.5714 31.4043C32.5714 30.4592 31.8023 29.69 30.8571 29.69H28.5714C28.2583 29.69 27.9686 29.7803 27.7154 29.9278C27.4571 29.7769 27.1651 29.69 26.8571 29.69H26.2709C26.6337 29.2112 26.8571 28.6215 26.8571 27.9758C26.8571 26.4003 25.5754 25.1186 24 25.1186C22.4246 25.1186 21.1429 26.4003 21.1429 27.9758C21.1429 28.6215 21.3663 29.2112 21.7291 29.69H20.5714C20.2583 29.69 19.9686 29.7803 19.7154 29.9278C19.4571 29.7769 19.1651 29.69 18.8571 29.69H16.5714C15.6263 29.69 14.8571 30.4592 14.8571 31.4043C14.8571 31.6055 14.8983 31.7963 14.9623 31.9758H12.5714V14.8329H35.4286V31.9758L36.5714 33.1186ZM28.5714 30.8329H30.8571C31.1726 30.8329 31.4286 31.0889 31.4286 31.4043C31.4286 31.7198 31.1726 31.9758 30.8571 31.9758H28.5714C28.256 31.9758 28 31.7198 28 31.4043C28 31.0889 28.256 30.8329 28.5714 30.8329ZM26.9566 30.8523C26.8966 31.0266 26.8571 31.21 26.8571 31.4043C26.8571 31.598 26.8966 31.7809 26.956 31.9546C26.9223 31.9603 26.8914 31.9758 26.8571 31.9758H24.5714C24.256 31.9758 24 31.7198 24 31.4043C24 31.0889 24.256 30.8329 24.5714 30.8329H26.8571C26.892 30.8329 26.9229 30.8466 26.9566 30.8523ZM24 26.2615C24.9451 26.2615 25.7143 27.0306 25.7143 27.9758C25.7143 28.9209 24.9451 29.69 24 29.69C23.0549 29.69 22.2857 28.9209 22.2857 27.9758C22.2857 27.0306 23.0549 26.2615 24 26.2615ZM20.5714 30.8329H22.8571C22.892 30.8329 22.9229 30.8466 22.9566 30.8523C22.8966 31.0266 22.8571 31.21 22.8571 31.4043C22.8571 31.598 22.8966 31.7809 22.956 31.9546C22.9223 31.9603 22.8914 31.9758 22.8571 31.9758H20.5714C20.256 31.9758 20 31.7198 20 31.4043C20 31.0889 20.256 30.8329 20.5714 30.8329ZM16 31.4043C16 31.0889 16.256 30.8329 16.5714 30.8329H18.8571C18.892 30.8329 18.9229 30.8466 18.9566 30.8523C18.8966 31.0266 18.8571 31.21 18.8571 31.4043C18.8571 31.5986 18.8966 31.782 18.9566 31.9563C18.9229 31.962 18.892 31.9758 18.8571 31.9758H16.5714C16.256 31.9758 16 31.7198 16 31.4043ZM36.5714 17.1186H38.8571V19.4043H36.5714V17.1186ZM36.5714 22.8329V20.5472H38.8571V22.8329H36.5714ZM9.14286 17.1186H11.4286V19.4043H9.14286V17.1186ZM9.14286 22.8329V20.5472H11.4286V22.8329H9.14286ZM11.4286 13.69V15.9758H9.14286V11.4043H38.8571V15.9758H36.5714V13.69H11.4286Z" fill="#141414"/>
</svg>
