<svg width="48" height="48" viewBox="0 0 48 48" fill="none" xmlns="http://www.w3.org/2000/svg">
<path d="M22.4516 15.7158L25.5484 15.7158C26.4021 15.7158 27.0968 15.0211 27.0968 14.1674L27.0968 12.1029L20.9032 12.1029L20.9032 14.1674C20.9032 15.0211 21.5979 15.7158 22.4516 15.7158Z" fill="#FCAB1E"/>
<path d="M28.5941 20.4263L28.5941 36.8247L19.4215 36.8247L19.4215 20.4263L28.5941 20.4263Z" stroke="#141414" stroke-width="1.15"/>
<path d="M15.2258 17.7804L16.7742 17.7804L16.7742 20.8772L31.2258 20.8772L31.2258 17.7804L32.7742 17.7804C33.6279 17.7804 34.3226 17.0857 34.3226 16.232L34.3226 11.5869L13.6774 11.5869L13.6774 16.232C13.6774 17.0857 14.3721 17.7804 15.2258 17.7804ZM30.1935 19.8449L17.8064 19.8449L17.8064 17.7804L30.1935 17.7804L30.1935 19.8449ZM33.2903 12.6191L33.2903 13.6514L28.129 13.6514L28.129 14.6836L33.2903 14.6836L33.2903 16.232C33.2903 16.5169 33.0586 16.7482 32.7742 16.7482L31.2258 16.7482L16.7742 16.7482L15.2258 16.7482C14.9414 16.7482 14.7097 16.5169 14.7097 16.232L14.7097 14.6836L19.871 14.6836L19.871 13.6514L14.7097 13.6514L14.7097 12.6191L33.2903 12.6191Z" fill="#141414"/>
</svg>
