<svg width="48" height="48" viewBox="0 0 48 48" fill="none" xmlns="http://www.w3.org/2000/svg">
<g clip-path="url(#clip0_4046_7947)">
<path d="M24.5161 30.4056C22.5285 30.4056 20.6044 29.427 19.6129 27.9122C18.9244 26.8598 18.3422 25.0595 19.4787 22.4572L19.9236 21.4368L20.4144 22.4365C20.415 22.4365 20.7303 22.9981 21.7977 23.443C21.3233 20.1062 23.6702 18.2146 23.7791 18.1289L24.6142 17.4724V18.5346C24.6142 20.6089 25.3424 20.9774 26.0464 21.3341C26.8134 21.7222 27.439 22.1666 27.312 23.4451C28.3396 23.01 28.6033 22.466 28.6064 22.4593L29.089 21.4177L29.5535 22.4572C30.69 25.0595 30.1079 26.8598 29.4193 27.9122C28.4279 29.427 26.5037 30.4056 24.5161 30.4056Z" fill="#FCAB1E"/>
<path d="M21.9355 37.1152C21.3651 37.1152 20.9032 36.6532 20.9032 36.0829V32.9861C20.9032 32.4158 21.3651 31.9539 21.9355 31.9539C22.5058 31.9539 22.9677 32.4158 22.9677 32.9861V36.0829C22.9677 36.6532 22.5058 37.1152 21.9355 37.1152Z" fill="#FCAB1E"/>
<path d="M27.0968 37.1152C26.5264 37.1152 26.0645 36.6532 26.0645 36.0829V32.9861C26.0645 32.4158 26.5264 31.9539 27.0968 31.9539C27.6671 31.9539 28.129 32.4158 28.129 32.9861V36.0829C28.129 36.6532 27.6671 37.1152 27.0968 37.1152Z" fill="#FCAB1E"/>
<path d="M25.6444 21.1155H31.2258V20.0833H24.8243C25.0147 20.6288 25.3151 20.9122 25.6444 21.1155Z" fill="#141414"/>
<path d="M40 32.4702V29.3735H36.3871V16.9864C37.2408 16.9864 37.9355 16.2917 37.9355 15.438C37.9355 14.5843 37.2408 13.8896 36.3871 13.8896H27.6129V10.7928H28.6452V7.69604H19.3548V10.7928H20.3871V13.8896H11.6129C10.7592 13.8896 10.0645 14.5843 10.0645 15.438C10.0645 16.2917 10.7592 16.9864 11.6129 16.9864V29.3735H8V32.4702H9.54839V36.5993H8V39.696H40V36.5993H38.4516V32.4702H40ZM35.3548 29.3735H34.3226V16.9864H35.3548V29.3735ZM20.3871 8.7283H27.6129V9.76056H20.3871V8.7283ZM21.4194 10.7928H26.5806V13.8896H21.4194V10.7928ZM11.0968 15.438C11.0968 15.1536 11.328 14.9219 11.6129 14.9219H36.3871C36.672 14.9219 36.9032 15.1536 36.9032 15.438C36.9032 15.7224 36.672 15.9541 36.3871 15.9541H11.6129C11.328 15.9541 11.0968 15.7224 11.0968 15.438ZM12.6452 16.9864H13.6774V29.3735H12.6452V16.9864ZM9.03226 30.4057H15.7419V29.3735H14.7097V27.3089H19.28C19.1396 27.006 19.0209 26.6617 18.9414 26.2767H14.7097V24.2122H18.9332C18.9915 23.886 19.0818 23.5407 19.2031 23.1799H14.7097V21.1154H21.921C22.0191 20.7366 22.1497 20.3928 22.2973 20.0831H14.7097V16.9864H33.2903V20.0831H32.2581V21.1154H33.2903V23.1799H29.8292C29.9505 23.5407 30.0408 23.886 30.0991 24.2122H33.2903V26.2767H30.0908C30.0114 26.6617 29.8926 27.006 29.7523 27.3089H33.2903V29.3735H26.5672C26.895 28.9409 27.0968 28.4083 27.0968 27.8251C27.0968 26.4021 25.9391 25.2444 24.5161 25.2444C23.0932 25.2444 21.9355 26.4021 21.9355 27.8251C21.9355 28.4083 22.1373 28.9409 22.465 29.3735H16.7742V30.4057H38.9677V31.438H9.03226V30.4057ZM22.9677 27.8251C22.9677 26.9714 23.6625 26.2767 24.5161 26.2767C25.3698 26.2767 26.0645 26.9714 26.0645 27.8251C26.0645 28.6788 25.3698 29.3735 24.5161 29.3735C23.6625 29.3735 22.9677 28.6788 22.9677 27.8251ZM28.5502 36.5993C28.608 36.4372 28.6452 36.2648 28.6452 36.0831V32.9864C28.6452 32.8047 28.608 32.6323 28.5502 32.4702H35.3548V36.5993H28.5502ZM20.4821 32.4702C20.4243 32.6323 20.3871 32.8047 20.3871 32.9864V36.0831C20.3871 36.2648 20.4243 36.4372 20.4821 36.5993H12.6452V32.4702H20.4821ZM21.4194 36.0831V32.9864C21.4194 32.702 21.6506 32.4702 21.9355 32.4702C22.2204 32.4702 22.4516 32.702 22.4516 32.9864V36.0831C22.4516 36.3675 22.2204 36.5993 21.9355 36.5993C21.6506 36.5993 21.4194 36.3675 21.4194 36.0831ZM25.5484 32.9864V34.0186H23.4839V32.9864C23.4839 32.8047 23.4467 32.6323 23.3889 32.4702H25.6439C25.5855 32.6323 25.5484 32.8047 25.5484 32.9864ZM23.4839 36.0831V35.0509H25.5484V36.0831C25.5484 36.2648 25.5855 36.4372 25.6434 36.5993H23.3884C23.4467 36.4372 23.4839 36.2648 23.4839 36.0831ZM26.5806 36.0831V32.9864C26.5806 32.702 26.8119 32.4702 27.0968 32.4702C27.3817 32.4702 27.6129 32.702 27.6129 32.9864V36.0831C27.6129 36.3675 27.3817 36.5993 27.0968 36.5993C26.8119 36.5993 26.5806 36.3675 26.5806 36.0831ZM10.5806 32.4702H11.6129V36.5993H10.5806V32.4702ZM38.9677 38.6638H9.03226V37.6315H38.9677V38.6638ZM37.4194 36.5993H36.3871V32.4702H37.4194V36.5993Z" fill="#141414"/>
</g>
<defs>
<clipPath id="clip0_4046_7947">
<rect width="32" height="32" fill="white" transform="translate(8 7.69604)"/>
</clipPath>
</defs>
</svg>
