<svg width="160" height="160" viewBox="0 0 160 160" fill="none" xmlns="http://www.w3.org/2000/svg">
<g clip-path="url(#clip0_1594_568)">
<path d="M116.129 126.451V72.2571C116.129 65.1319 110.351 59.3538 103.226 59.3538H56.7741C49.649 59.3538 43.8709 65.1319 43.8709 72.2571V126.451H33.5483V72.2571C33.5483 59.4287 43.9458 49.0312 56.7741 49.0312H103.226C116.054 49.0312 126.452 59.4287 126.452 72.2571V126.451H116.129Z" fill="#FFA64D"/>
<path d="M79.9999 129.032C69.9793 129.032 60.3277 124.147 55.4115 116.588C51.9922 111.328 49.1277 102.322 54.916 89.2769L57.1354 84.2678L59.5818 89.171C59.5844 89.171 61.2128 92.0201 66.7328 94.2601C64.5599 77.4033 78.387 67.6562 78.5367 67.5504L79.9999 66.5439L81.4631 67.5504C81.6154 67.6562 95.4399 77.4007 93.267 94.2575C98.7896 92.0227 100.418 89.1607 100.439 89.1272L102.947 84.562L105.084 89.2769C110.87 102.322 108.008 111.328 104.588 116.588C99.6722 124.147 90.0206 129.032 79.9999 129.032Z" fill="#FFA64D"/>
<path d="M121.29 2.58008H38.7096V23.2252H121.29V2.58008Z" fill="#FFA64D"/>
<path d="M152.258 139.355V123.871H144.516V36.129C147.363 36.129 149.677 33.8142 149.677 30.9677V25.8064C149.677 22.96 147.363 20.6452 144.516 20.6452H123.871V0H36.129V20.6452H15.4839C12.6374 20.6452 10.3226 22.96 10.3226 25.8064V30.9677C10.3226 33.8142 12.6374 36.129 15.4839 36.129V123.871H7.74194V139.355H0V160H160V139.355H152.258ZM129.032 123.871V113.548H139.355V123.871H129.032ZM72.2581 116.129C72.2581 111.861 75.7316 108.387 80 108.387C84.2684 108.387 87.7419 111.861 87.7419 116.129C87.7419 120.397 84.2684 123.871 80 123.871C75.7316 123.871 72.2581 120.397 72.2581 116.129ZM80 103.226C72.8852 103.226 67.0968 109.014 67.0968 116.129C67.0968 119.045 68.1058 121.708 69.7445 123.871H46.4516V72.2581C46.4516 66.5652 51.0813 61.9355 56.7742 61.9355H103.226C108.919 61.9355 113.548 66.5652 113.548 72.2581V123.871H90.2555C91.8942 121.708 92.9032 119.045 92.9032 116.129C92.9032 109.014 87.1148 103.226 80 103.226ZM103.226 56.7742H56.7742C48.2348 56.7742 41.2903 63.7187 41.2903 72.2581V123.871H36.129V72.2581C36.129 60.8748 45.391 51.6129 56.7742 51.6129H103.226C114.609 51.6129 123.871 60.8748 123.871 72.2581V123.871H118.71V72.2581C118.71 63.7187 111.765 56.7742 103.226 56.7742ZM20.6452 51.6129H41.3574C37.8013 54.2761 34.9445 57.8194 33.1381 61.9355H20.6452V51.6129ZM20.6452 67.0968H31.489C31.1484 68.7639 30.9677 70.4903 30.9677 72.2581V77.4193H20.6452V67.0968ZM20.6452 82.5806H30.9677V92.9032H20.6452V82.5806ZM20.6452 98.0645H30.9677V108.387H20.6452V98.0645ZM139.355 108.387H129.032V98.0645H139.355V108.387ZM139.355 92.9032H129.032V82.5806H139.355V92.9032ZM139.355 77.4193H129.032V72.2581C129.032 70.4903 128.852 68.7639 128.511 67.0968H139.355V77.4193ZM139.355 61.9355H126.862C125.055 57.8194 122.201 54.2761 118.643 51.6129H139.355V61.9355ZM41.2903 5.16129H118.71V20.6452H41.2903V5.16129ZM129.032 36.129V30.9677H15.4839V25.8064H144.516V30.9677H134.194V36.129H139.355V46.4516H105.806V46.5832C104.957 46.4981 104.098 46.4516 103.226 46.4516H56.7742C55.9019 46.4516 55.0426 46.4981 54.1935 46.5832V46.4516H20.6452V36.129H129.032ZM20.6452 113.548H30.9677V123.871H20.6452V113.548ZM154.839 154.839H5.16129V144.516H136.774V139.355H12.9032V129.032H147.097V139.355H141.935V144.516H154.839V154.839Z" fill="#333333"/>
</g>
<defs>
<clipPath id="clip0_1594_568">
<rect width="160" height="160" fill="white"/>
</clipPath>
</defs>
</svg>
