<svg width="16" height="10" viewBox="0 0 16 10" fill="none" xmlns="http://www.w3.org/2000/svg">
<path fill-rule="evenodd" clip-rule="evenodd" d="M10.293 0.299012C10.4805 0.111541 10.7348 0.00622559 11 0.00622559C11.2652 0.00622559 11.5195 0.111541 11.707 0.299012L15.707 4.29901C15.8945 4.48654 15.9998 4.74085 15.9998 5.00601C15.9998 5.27118 15.8945 5.52548 15.707 5.71301L11.707 9.71301C11.5184 9.89517 11.2658 9.99596 11.0036 9.99369C10.7414 9.99141 10.4906 9.88624 10.3052 9.70083C10.1198 9.51542 10.0146 9.26461 10.0123 9.00241C10.01 8.74022 10.1108 8.48761 10.293 8.29901L12.586 6.00601L1 6.00601C0.734784 6.00601 0.48043 5.90065 0.292893 5.71312C0.105357 5.52558 0 5.27123 0 5.00601C0 4.7408 0.105357 4.48644 0.292893 4.29891C0.48043 4.11137 0.734784 4.00601 1 4.00601L12.586 4.00601L10.293 1.71301C10.1055 1.52548 10.0002 1.27118 10.0002 1.00601C10.0002 0.740848 10.1055 0.48654 10.293 0.299012Z" fill="#F7752A"/>
</svg>
