<svg width="15" height="14" viewBox="0 0 15 14" fill="#43c16d" xmlns="http://www.w3.org/2000/svg">
<path d="M2.5 0C1.96957 0 1.46086 0.210714 1.08579 0.585786C0.710714 0.960859 0.5 1.46957 0.5 2V4C0.5 4.53043 0.710714 5.03914 1.08579 5.41421C1.46086 5.78929 1.96957 6 2.5 6H4.5C5.03043 6 5.53914 5.78929 5.91421 5.41421C6.28929 5.03914 6.5 4.53043 6.5 4V2C6.5 1.46957 6.28929 0.960859 5.91421 0.585786C5.53914 0.210714 5.03043 0 4.5 0H2.5ZM2.5 8C1.96957 8 1.46086 8.21071 1.08579 8.58579C0.710714 8.96086 0.5 9.46957 0.5 10V12C0.5 12.5304 0.710714 13.0391 1.08579 13.4142C1.46086 13.7893 1.96957 14 2.5 14H4.5C5.03043 14 5.53914 13.7893 5.91421 13.4142C6.28929 13.0391 6.5 12.5304 6.5 12V10C6.5 9.46957 6.28929 8.96086 5.91421 8.58579C5.53914 8.21071 5.03043 8 4.5 8H2.5ZM8.5 2C8.5 1.46957 8.71071 0.960859 9.08579 0.585786C9.46086 0.210714 9.96957 0 10.5 0H12.5C13.0304 0 13.5391 0.210714 13.9142 0.585786C14.2893 0.960859 14.5 1.46957 14.5 2V4C14.5 4.53043 14.2893 5.03914 13.9142 5.41421C13.5391 5.78929 13.0304 6 12.5 6H10.5C9.96957 6 9.46086 5.78929 9.08579 5.41421C8.71071 5.03914 8.5 4.53043 8.5 4V2ZM8.5 10C8.5 9.46957 8.71071 8.96086 9.08579 8.58579C9.46086 8.21071 9.96957 8 10.5 8H12.5C13.0304 8 13.5391 8.21071 13.9142 8.58579C14.2893 8.96086 14.5 9.46957 14.5 10V12C14.5 12.5304 14.2893 13.0391 13.9142 13.4142C13.5391 13.7893 13.0304 14 12.5 14H10.5C9.96957 14 9.46086 13.7893 9.08579 13.4142C8.71071 13.0391 8.5 12.5304 8.5 12V10Z" fill="#61707D"/>
</svg>
