<svg width="8" height="5" viewBox="0 0 8 5" fill="none" xmlns="http://www.w3.org/2000/svg">
<path fill-rule="evenodd" clip-rule="evenodd" d="M0.233947 0.253896C0.383788 0.0979839 0.586989 0.0103972 0.798864 0.0103972C1.01074 0.0103972 1.21394 0.0979839 1.36378 0.253896L3.995 2.99255L6.62623 0.253896C6.69994 0.174464 6.78811 0.111106 6.88559 0.0675198C6.98308 0.0239334 7.08793 0.000990984 7.19402 3.1401e-05C7.30012 -0.000928182 7.40533 0.020114 7.50353 0.0619306C7.60173 0.103747 7.69094 0.165501 7.76597 0.243587C7.84099 0.321674 7.90032 0.414531 7.9405 0.516739C7.98067 0.618946 8.00089 0.728459 7.99997 0.838886C7.99905 0.949314 7.97701 1.05844 7.93513 1.15991C7.89325 1.26138 7.83238 1.35314 7.75606 1.42986L4.55992 4.7565C4.41008 4.91241 4.20688 5 3.995 5C3.78313 5 3.57993 4.91241 3.43009 4.7565L0.233947 1.42986C0.0841508 1.2739 0 1.06241 0 0.841879C0 0.621353 0.0841508 0.409855 0.233947 0.253896Z" fill="#61707D"/>
</svg>
