<svg width="12" height="24" viewBox="0 0 12 24" fill="none" xmlns="http://www.w3.org/2000/svg">
<path fill-rule="evenodd" clip-rule="evenodd" d="M7.71985 9.21959C7.8605 9.07899 8.05123 9 8.25011 9C8.44899 9 8.63972 9.07899 8.78037 9.21959L11.7804 12.2196C11.921 12.3603 12 12.551 12 12.7499C12 12.9488 11.921 13.1395 11.7804 13.2801L8.78037 16.2802C8.63891 16.4168 8.44946 16.4924 8.25281 16.4907C8.05616 16.489 7.86805 16.4101 7.72899 16.2711C7.58993 16.132 7.51105 15.9439 7.50935 15.7472C7.50764 15.5506 7.58323 15.3611 7.71985 15.2197L9.43963 13.4999H0.75001C0.551095 13.4999 0.360327 13.4209 0.219673 13.2802C0.0790187 13.1396 0 12.9488 0 12.7499C0 12.551 0.0790187 12.3602 0.219673 12.2196C0.360327 12.0789 0.551095 11.9999 0.75001 11.9999H9.43963L7.71985 10.2801C7.57925 10.1395 7.50026 9.94873 7.50026 9.74985C7.50026 9.55097 7.57925 9.36024 7.71985 9.21959Z" fill="#117FF7"/>
</svg>
