<svg width="7" height="24" viewBox="0 0 7 24" fill="none" xmlns="http://www.w3.org/2000/svg">
<path fill-rule="evenodd" clip-rule="evenodd" d="M1.26843 17.707C1.08096 17.5195 0.975647 17.2652 0.975647 17C0.975647 16.7349 1.08096 16.4806 1.26843 16.293L4.56143 13L1.26843 9.70704C1.08628 9.51844 0.985481 9.26584 0.987759 9.00364C0.990038 8.74144 1.09521 8.49063 1.28061 8.30522C1.46602 8.11981 1.71684 8.01465 1.97903 8.01237C2.24123 8.01009 2.49383 8.11088 2.68243 8.29304L6.68243 12.293C6.8699 12.4806 6.97522 12.7349 6.97522 13C6.97522 13.2652 6.8699 13.5195 6.68243 13.707L2.68243 17.707C2.49491 17.8945 2.2406 17.9998 1.97543 17.9998C1.71027 17.9998 1.45596 17.8945 1.26843 17.707Z" fill="#141414" fill-opacity="0.6"/>
</svg>
