<svg width="24" height="24" viewBox="0 0 24 24" fill="none" xmlns="http://www.w3.org/2000/svg">
<circle cx="12" cy="12" r="12" fill="#141414" fill-opacity="0.1"/>
<path d="M12.5211 6.21959C12.3805 6.07899 12.1897 6 11.9909 6C11.792 6 11.6013 6.07899 11.4606 6.21959L6.21054 11.4697C6.07392 11.6111 5.99832 11.8006 6.00003 11.9972C6.00174 12.1939 6.08061 12.382 6.21967 12.521C6.35873 12.6601 6.54684 12.739 6.74349 12.7407C6.94014 12.7424 7.1296 12.6668 7.27105 12.5302L7.4908 12.3104V17.25C7.4908 17.4489 7.56982 17.6397 7.71048 17.7803C7.85113 17.921 8.0419 18 8.24081 18H9.74083C9.93975 18 10.1305 17.921 10.2712 17.7803C10.4118 17.6397 10.4908 17.4489 10.4908 17.25V15.75C10.4908 15.5511 10.5699 15.3603 10.7105 15.2196C10.8512 15.079 11.0419 15 11.2409 15H12.7409C12.9398 15 13.1306 15.079 13.2712 15.2196C13.4119 15.3603 13.4909 15.5511 13.4909 15.75V17.25C13.4909 17.4489 13.5699 17.6397 13.7106 17.7803C13.8512 17.921 14.042 18 14.2409 18H15.7409C15.9398 18 16.1306 17.921 16.2713 17.7803C16.4119 17.6397 16.4909 17.4489 16.4909 17.25V12.3104L16.7107 12.5302C16.8521 12.6668 17.0416 12.7424 17.2382 12.7407C17.4349 12.739 17.623 12.6601 17.7621 12.521C17.9011 12.382 17.98 12.1939 17.9817 11.9972C17.9834 11.8006 17.9078 11.6111 17.7712 11.4697L12.5211 6.21959Z" fill="#141414"/>
</svg>
