<svg width="100" height="100" viewBox="0 0 100 100" fill="none" xmlns="http://www.w3.org/2000/svg">
<circle cx="50" cy="50" r="42.5" stroke="#F7752A" stroke-width="15"/>
<path d="M50 27L63.435 40.4731C70.855 47.9141 70.855 59.9783 63.435 67.4193C56.0151 74.8602 43.9849 74.8602 36.565 67.4193C29.145 59.9783 29.145 47.9141 36.565 40.4731L50 27Z" fill="#FC2F1E"/>
<path d="M50 34L59.0696 43.0953C64.0786 48.1185 64.0786 56.2628 59.0696 61.286C54.0606 66.3092 45.9394 66.3092 40.9303 61.286C35.9213 56.2628 35.9213 48.1185 40.9303 43.0953L50 34Z" fill="#F7752A"/>
<path d="M49.9999 41L55.1302 46.1448C57.9636 48.9862 57.9636 53.5931 55.1302 56.4345C52.2969 59.2759 47.703 59.2759 44.8697 56.4345C42.0363 53.5931 42.0363 48.9862 44.8697 46.1448L49.9999 41Z" fill="#FCAB1E"/>
</svg>
