<svg width="16" height="10" viewBox="0 0 16 10" fill="none" xmlns="http://www.w3.org/2000/svg">
<path fill-rule="evenodd" clip-rule="evenodd" d="M10.2931 0.299134C10.4806 0.111663 10.735 0.00634766 11.0001 0.00634766C11.2653 0.00634766 11.5196 0.111663 11.7071 0.299134L15.7071 4.29913C15.8946 4.48666 15.9999 4.74097 15.9999 5.00613C15.9999 5.2713 15.8946 5.52561 15.7071 5.71313L11.7071 9.71313C11.5185 9.89529 11.2659 9.99609 11.0037 9.99381C10.7415 9.99153 10.4907 9.88636 10.3053 9.70095C10.1199 9.51554 10.0147 9.26473 10.0124 9.00253C10.0102 8.74034 10.111 8.48774 10.2931 8.29913L12.5861 6.00613L1.00012 6.00613C0.734906 6.00613 0.480552 5.90078 0.293015 5.71324C0.105479 5.5257 0.00012207 5.27135 0.00012207 5.00613C0.00012207 4.74092 0.105479 4.48656 0.293015 4.29903C0.480552 4.11149 0.734906 4.00613 1.00012 4.00613L12.5861 4.00613L10.2931 1.71313C10.1057 1.52561 10.0003 1.2713 10.0003 1.00613C10.0003 0.74097 10.1057 0.486662 10.2931 0.299134Z" fill="#F7752A"/>
</svg>
