<svg width="48" height="48" viewBox="0 0 48 48" fill="none" xmlns="http://www.w3.org/2000/svg">
<rect width="48" height="48" rx="24" fill="#FEFEFF" fill-opacity="0.1"/>
<path fill-rule="evenodd" clip-rule="evenodd" d="M19.05 18.0499C20.3628 16.737 22.1434 15.9995 24 15.9995C25.8566 15.9995 27.6372 16.737 28.95 18.0499C30.2628 19.3627 31.0004 21.1433 31.0004 22.9999C31.0004 24.8565 30.2628 26.637 28.95 27.9499L24 32.8999L19.05 27.9499C18.3999 27.2998 17.8842 26.5281 17.5324 25.6788C17.1806 24.8295 16.9995 23.9192 16.9995 22.9999C16.9995 22.0806 17.1806 21.1702 17.5324 20.3209C17.8842 19.4716 18.3999 18.6999 19.05 18.0499ZM24 24.9999C24.5304 24.9999 25.0391 24.7892 25.4142 24.4141C25.7893 24.039 26 23.5303 26 22.9999C26 22.4694 25.7893 21.9607 25.4142 21.5857C25.0391 21.2106 24.5304 20.9999 24 20.9999C23.4696 20.9999 22.9609 21.2106 22.5858 21.5857C22.2107 21.9607 22 22.4694 22 22.9999C22 23.5303 22.2107 24.039 22.5858 24.4141C22.9609 24.7892 23.4696 24.9999 24 24.9999Z" fill="#FEFEFF"/>
</svg>
