<svg width="48" height="48" viewBox="0 0 48 48" fill="none" xmlns="http://www.w3.org/2000/svg">
<rect width="48" height="48" rx="24" fill="#FEFEFF" fill-opacity="0.1"/>
<path d="M15.503 19.884L23.5 23.882L31.497 19.884C31.4674 19.3744 31.2441 18.8955 30.8728 18.5452C30.5016 18.195 30.0104 17.9999 29.5 18H17.5C16.9896 17.9999 16.4985 18.195 16.1272 18.5452C15.7559 18.8955 15.5326 19.3744 15.503 19.884Z" fill="#FEFEFF"/>
<path d="M31.5 22.1182L23.5 26.1182L15.5 22.1182V28.0002C15.5 28.5306 15.7107 29.0393 16.0858 29.4144C16.4609 29.7895 16.9696 30.0002 17.5 30.0002H29.5C30.0304 30.0002 30.5391 29.7895 30.9142 29.4144C31.2893 29.0393 31.5 28.5306 31.5 28.0002V22.1182Z" fill="#FEFEFF"/>
</svg>
