<svg width="48" height="48" viewBox="0 0 48 48" fill="none" xmlns="http://www.w3.org/2000/svg">
<rect width="48" height="48" rx="24" fill="#FEFEFF" fill-opacity="0.1"/>
<path d="M15.5 17C15.5 16.7348 15.6054 16.4804 15.7929 16.2929C15.9804 16.1054 16.2348 16 16.5 16H18.653C18.8897 16.0001 19.1187 16.0842 19.2992 16.2373C19.4798 16.3903 19.6002 16.6025 19.639 16.836L20.379 21.271C20.4144 21.4822 20.381 21.6992 20.2838 21.89C20.1866 22.0809 20.0306 22.2354 19.839 22.331L18.291 23.104C18.8461 24.4797 19.6728 25.7293 20.7218 26.7782C21.7707 27.8272 23.0203 28.6539 24.396 29.209L25.17 27.661C25.2655 27.4695 25.4199 27.3138 25.6106 27.2166C25.8012 27.1194 26.0179 27.0859 26.229 27.121L30.664 27.861C30.8975 27.8998 31.1097 28.0202 31.2627 28.2008C31.4158 28.3813 31.4999 28.6103 31.5 28.847V31C31.5 31.2652 31.3946 31.5196 31.2071 31.7071C31.0196 31.8946 30.7652 32 30.5 32H28.5C21.32 32 15.5 26.18 15.5 19V17Z" fill="#FEFEFF"/>
</svg>
