<svg width="48" height="48" viewBox="0 0 48 48" fill="none" xmlns="http://www.w3.org/2000/svg">
<g clip-path="url(#clip0_3593_4629)">
<path d="M48 47.9999H0V34.0645H11.8707V35.6128H1.54839V46.4516H46.4516V35.6128H36.1293V34.0645H48V47.9999Z" fill="#141414"/>
<path d="M21 34.0645H27V35.6128H21V34.0645Z" fill="#141414"/>
<path d="M30.1936 23.2256L24 19.3547L17.8065 23.2256L20.1291 16.2579L14.7097 12.3869H21.1671L24 5.41919L26.833 12.3869H33.2904L27.871 16.2579L30.1936 23.2256Z" fill="#FCAB1E"/>
<path d="M33.2175 26.7693L24.8098 30.424L29.3529 44.9628L32.1949 37.3834L39.4382 40.0999L33.2175 26.7693Z" fill="#FCAB1E"/>
<path d="M14.7828 26.7693L8.56201 40.0999L15.8053 37.3834L18.6473 44.9628L23.1904 30.424L14.7828 26.7693Z" fill="#FCAB1E"/>
<path d="M24 0C15.4623 0 8.51611 6.94619 8.51611 15.4839C8.51611 24.0215 15.4623 30.9677 24 30.9677C32.5377 30.9677 39.4839 24.0215 39.4839 15.4839C39.4839 6.94619 32.5377 0 24 0ZM23.2258 27.8317V29.38C21.254 29.2708 19.3919 28.7559 17.7214 27.9073L18.4971 26.5641C19.9377 27.2835 21.5349 27.7262 23.2258 27.8317ZM24.7742 27.8317C26.4651 27.7262 28.0622 27.2835 29.5036 26.5641L30.2793 27.9073C28.6089 28.7552 26.7467 29.2708 24.7749 29.38V27.8317H24.7742ZM24 26.3226C18.023 26.3226 13.1613 21.4608 13.1613 15.4839C13.1613 9.50693 18.023 4.64516 24 4.64516C29.9769 4.64516 34.8387 9.50693 34.8387 15.4839C34.8387 21.4608 29.9769 26.3226 24 26.3226ZM11.6522 14.7097H10.1038C10.2131 12.7379 10.7279 10.8758 11.5766 9.20527L12.9197 9.98097C12.2003 11.4216 11.7577 13.0188 11.6522 14.7097ZM11.6522 16.2581C11.7577 17.949 12.2003 19.5461 12.9197 20.9875L11.5766 21.7632C10.7287 20.0927 10.2131 18.2306 10.1038 16.2588H11.6522V16.2581ZM24.7742 3.13609V1.5877C26.746 1.69695 28.6081 2.21182 30.2786 3.06048L29.5029 4.4036C28.0622 3.68422 26.4651 3.24156 24.7742 3.13609ZM23.2258 3.13609C21.5349 3.24156 19.9377 3.68422 18.4963 4.4036L17.7214 3.05973C19.3919 2.21182 21.254 1.69619 23.2258 1.58695V3.13609ZM36.3478 16.2581H37.8962C37.7869 18.2298 37.272 20.092 36.4234 21.7625L35.0802 20.9868C35.7996 19.5461 36.2423 17.949 36.3478 16.2581ZM36.3478 14.7097C36.2423 13.0188 35.7996 11.4216 35.0802 9.98022L36.4234 9.20451C37.2713 10.875 37.7869 12.7371 37.8962 14.7089H36.3478V14.7097ZM35.6522 7.86177L34.3129 8.63521C33.3996 7.26336 32.2205 6.0843 30.8486 5.17099L31.6221 3.83165C33.226 4.88445 34.5994 6.25781 35.6522 7.86177ZM16.3779 3.83165L17.1513 5.17099C15.7795 6.0843 14.6004 7.26336 13.6871 8.63521L12.3478 7.86177C13.4006 6.25781 14.7739 4.88445 16.3779 3.83165ZM12.3478 23.106L13.6871 22.3325C14.6004 23.7044 15.7795 24.8834 17.1513 25.7967L16.3779 27.1361C14.7739 26.0833 13.4006 24.7099 12.3478 23.106ZM31.6221 27.1361L30.8486 25.7967C32.2205 24.8834 33.3996 23.7044 34.3129 22.3325L35.6522 23.106C34.5994 24.7099 33.226 26.0833 31.6221 27.1361Z" fill="#141414"/>
<path d="M39.4839 24.7742H41.0323V26.3226H39.4839V24.7742Z" fill="#141414"/>
<path d="M39.4839 27.8708H41.0323V29.4192H39.4839V27.8708Z" fill="#141414"/>
<path d="M41.0322 26.3228H42.5806V27.8711H41.0322V26.3228Z" fill="#141414"/>
<path d="M37.9355 26.3228H39.4839V27.8711H37.9355V26.3228Z" fill="#141414"/>
<path d="M42.5806 12.387H44.129V13.9353H42.5806V12.387Z" fill="#141414"/>
<path d="M42.5806 15.4839H44.129V17.0323H42.5806V15.4839Z" fill="#141414"/>
<path d="M44.1289 13.9355H45.6773V15.4839H44.1289V13.9355Z" fill="#141414"/>
<path d="M41.0322 13.9355H42.5806V15.4839H41.0322V13.9355Z" fill="#141414"/>
<path d="M42.5806 2.32251H44.129V3.8709H42.5806V2.32251Z" fill="#141414"/>
<path d="M42.5806 5.41919H44.129V6.96757H42.5806V5.41919Z" fill="#141414"/>
<path d="M44.1289 3.87109H45.6773V5.41948H44.1289V3.87109Z" fill="#141414"/>
<path d="M41.0322 3.87109H42.5806V5.41948H41.0322V3.87109Z" fill="#141414"/>
<path d="M3.87109 14.7097H5.41948V16.2581H3.87109V14.7097Z" fill="#141414"/>
<path d="M5.41919 16.2581H6.96757V17.8064H5.41919V16.2581Z" fill="#141414"/>
<path d="M3.87109 17.8064H5.41948V19.3548H3.87109V17.8064Z" fill="#141414"/>
<path d="M2.32251 16.2581H3.8709V17.8064H2.32251V16.2581Z" fill="#141414"/>
<path d="M5.41919 2.32251H6.96757V3.8709H5.41919V2.32251Z" fill="#141414"/>
<path d="M6.96777 3.87109H8.51616V5.41948H6.96777V3.87109Z" fill="#141414"/>
<path d="M5.41919 5.41919H6.96757V6.96757H5.41919V5.41919Z" fill="#141414"/>
<path d="M3.87109 3.87109H5.41948V5.41948H3.87109V3.87109Z" fill="#141414"/>
<path d="M6.1936 27.8708H7.74199V29.4192H6.1936V27.8708Z" fill="#141414"/>
<path d="M7.7417 29.4192H9.29009V30.9676H7.7417V29.4192Z" fill="#141414"/>
<path d="M6.1936 30.9678H7.74199V32.5162H6.1936V30.9678Z" fill="#141414"/>
<path d="M4.64526 29.4192H6.19365V30.9676H4.64526V29.4192Z" fill="#141414"/>
</g>
<defs>
<clipPath id="clip0_3593_4629">
<rect width="48" height="48" fill="white"/>
</clipPath>
</defs>
</svg>
