<svg width="48" height="48" viewBox="0 0 48 48" fill="none" xmlns="http://www.w3.org/2000/svg">
<g clip-path="url(#clip0_3593_4618)">
<path d="M47.0145 12.5148L30.9677 0.290283L14.921 12.5156C14.4953 12.8399 14.191 13.2811 14.0391 13.7922L15.5239 14.2318L15.4839 15.973H17.8065L18.2816 16.7566L30.9677 6.88945L43.9593 16.9944C44.3978 17.3343 44.9425 17.5214 45.4971 17.5214C46.8773 17.5214 48 16.399 48 15.0185V14.5074C48 13.7309 47.6307 12.9862 47.0145 12.5148Z" fill="#FCAB1E"/>
<path d="M13.9355 35.3279H6.1936V27.5859H13.9355V35.3279Z" fill="#FCAB1E"/>
<path d="M26.3226 31.4569H43.3548V16.5234L41.8064 15.319V29.9085H35.6129V20.6182H26.3226V29.9085H24.7742V19.0698C24.7742 17.7894 23.732 16.7472 22.4516 16.7472H18.5806V15.1988H16.1798C15.8199 13.4346 14.2568 12.1021 12.3871 12.1021C10.5174 12.1021 8.9535 13.4346 8.59438 15.1988H6.19355V16.7472H2.32258C1.04221 16.7472 0 17.7894 0 19.0698V45.3924C0 46.6731 1.04221 47.715 2.32258 47.715H22.4516C23.732 47.715 24.7742 46.6731 24.7742 45.3924V41.5044L35.6129 41.5214C37.3208 41.5214 38.7097 40.1326 38.7097 38.4246C38.7097 36.7167 37.3208 35.3279 35.6129 35.3279H24.7742V31.4569H26.3226ZM27.871 22.1666H34.0645V29.9085H27.871V22.1666ZM17.8064 39.973V36.8762H30.9677V39.973H17.8064ZM16.2581 39.7209L12.5689 38.6662C12.4623 38.636 12.3871 38.5369 12.3871 38.4246C12.3871 38.3124 12.4623 38.2133 12.5697 38.1831L16.2581 37.1288V39.7209ZM20.129 35.3279H17.0323L12.1455 36.6937C11.3759 36.9129 10.8387 37.6251 10.8387 38.4246C10.8387 39.2245 11.3759 39.9367 12.1455 40.156L16.8202 41.4923L20.129 41.4976V43.0698H4.64516V21.3924H6.19355V22.9408H18.5806V21.3924H20.129V35.3279ZM7.74193 16.7472H10.0645V15.973C10.0645 14.6927 11.1067 13.6504 12.3871 13.6504C13.6675 13.6504 14.7097 14.6927 14.7097 15.973V16.7472H17.0323V21.3924H7.74193V16.7472ZM23.2258 45.3924C23.2258 45.8199 22.8788 46.1666 22.4516 46.1666H2.32258C1.89541 46.1666 1.54839 45.8199 1.54839 45.3924V19.0698C1.54839 18.6426 1.89541 18.2956 2.32258 18.2956H6.19355V19.844H3.09677V44.6182H21.6774V41.4999L23.2258 41.5021V45.3924ZM37.1613 38.4246C37.1613 39.2786 36.4669 39.973 35.6129 39.973H32.5161V36.8762H35.6129C36.4669 36.8762 37.1613 37.5707 37.1613 38.4246ZM21.6774 35.3279V19.844H18.5806V18.2956H22.4516C22.8788 18.2956 23.2258 18.6426 23.2258 19.0698V35.3279H21.6774Z" fill="#141414"/>
<path d="M36.3871 12.8762H31.7419V17.5214H36.3871V12.8762ZM34.8387 15.973H33.2903V14.4246H34.8387V15.973Z" fill="#141414"/>
<path d="M30.1935 12.8762H25.5483V17.5214H30.1935V12.8762ZM28.6451 15.973H27.0967V14.4246H28.6451V15.973Z" fill="#141414"/>
<path d="M9.29028 18.2957H10.8387V19.844H9.29028V18.2957Z" fill="#141414"/>
<path d="M13.9355 18.2957H15.4839V19.844H13.9355V18.2957Z" fill="#141414"/>
<path d="M10.0645 31.1364L9.06351 30.1354L7.96875 31.2302L10.0645 33.3259L17.5796 25.8108L16.4849 24.7161L10.0645 31.1364Z" fill="#141414"/>
</g>
<defs>
<clipPath id="clip0_3593_4618">
<rect width="48" height="48" fill="white"/>
</clipPath>
</defs>
</svg>
