<svg width="48" height="48" viewBox="0 0 48 48" fill="none" xmlns="http://www.w3.org/2000/svg">
<g clip-path="url(#clip0_3593_4265)">
<path d="M48 26.027V21.973L45.4188 20.6825C45.1803 19.1318 44.7755 17.6137 44.2103 16.159L45.7973 13.7559L43.7707 10.2448L40.8882 10.4183C39.908 9.20111 38.7996 8.09199 37.5817 7.11177L37.7552 4.22933L34.2441 2.20275L31.841 3.78969C30.3863 3.2253 28.8682 2.81968 27.3175 2.58115L26.027 0H21.973L20.6825 2.58115C19.1318 2.81968 17.6137 3.22455 16.159 3.78969L13.7559 2.20275L10.2448 4.22933L10.4183 7.11177C9.20111 8.09199 8.09199 9.20035 7.11177 10.4183L4.22933 10.2448L2.20275 13.7559L3.78969 16.159C3.2253 17.6137 2.81968 19.1318 2.58115 20.6825L0 21.973V26.027L2.58115 27.3175C2.81968 28.8682 3.22455 30.3863 3.78969 31.841L2.20275 34.2441L4.22933 37.7552L7.11177 37.5817C8.09199 38.7989 9.20035 39.908 10.4183 40.8882L10.2448 43.7707L13.7559 45.7973L16.159 44.2103C17.6137 44.7747 19.1318 45.1803 20.6825 45.4188L21.973 48H26.027L27.3175 45.4188C28.8682 45.1803 30.3863 44.7755 31.841 44.2103L34.2441 45.7973L37.7552 43.7707L37.5817 40.8882C38.7989 39.908 39.908 38.7996 40.8882 37.5817L43.7707 37.7552L45.7973 34.2441L44.2103 31.841C44.7747 30.3863 45.1803 28.8682 45.4188 27.3175L48 26.027ZM28.0645 7.46484C31.2543 8.24887 34.2123 9.94846 36.5164 12.4506L31.8054 16.4909C30.4086 15.0401 28.6134 13.9835 26.5936 13.4864L28.0645 7.46484ZM24 30.1935C20.5796 30.1935 17.8065 27.4204 17.8065 24C17.8065 20.5796 20.5796 17.8065 24 17.8065C27.4204 17.8065 30.1935 20.5796 30.1935 24C30.1935 27.4204 27.4204 30.1935 24 30.1935ZM20.256 7.38584L21.4003 13.4887C19.3813 13.9865 17.5857 15.045 16.1908 16.4966L11.7127 12.2128C13.9858 9.84299 16.937 8.13054 20.256 7.38584ZM7.64743 28.748C6.73223 25.5941 6.72467 22.1821 7.73891 18.9352L13.5919 20.994C13.317 21.95 13.1613 22.9555 13.1613 24C13.1613 25.0467 13.3178 26.0546 13.5941 27.0125L7.64743 28.748ZM19.9355 40.5352C16.7457 39.7511 13.7877 38.0515 11.4836 35.5494L16.1946 31.5091C17.5914 32.9599 19.3866 34.0165 21.4064 34.5136L19.9355 40.5352ZM27.744 40.6142L26.5997 34.5113C28.6187 34.0135 30.4143 32.955 31.8092 31.5034L36.2873 35.7872C34.0142 38.157 31.063 39.8695 27.744 40.6142V40.6142ZM40.2603 29.0648L34.4074 27.006C34.683 26.05 34.8387 25.0445 34.8387 24C34.8387 22.9533 34.6822 21.9454 34.4059 20.9875L40.3526 19.252C41.2678 22.4059 41.2746 25.8179 40.2603 29.0648V29.0648Z" fill="#FCAB1E"/>
<path d="M41.0951 19.0357L40.88 18.291L34.9016 20.036C34.4362 18.7609 33.7641 17.5864 32.9094 16.5638L37.629 12.5156L37.0854 11.9255C34.7171 9.35452 31.6615 7.5521 28.2495 6.71289L27.4964 6.52804L26.0184 12.5753C25.3617 12.4589 24.69 12.387 24.0001 12.387C23.3219 12.387 22.6615 12.4573 22.0151 12.5696L20.8693 6.45508L20.0864 6.63086C16.6763 7.39598 13.5863 9.14094 11.1529 11.6771L10.6165 12.237L15.1139 16.5389C14.2561 17.5595 13.5795 18.7314 13.1104 20.0042L7.23964 17.9395L7.00035 18.7053C5.95738 22.0421 5.92411 25.5895 6.90433 28.9641L7.11943 29.7089L13.0979 27.9639C13.5632 29.239 14.2354 30.4143 15.0901 31.4361L10.3704 35.4836L10.914 36.0744C13.2812 38.6446 16.3364 40.447 19.7496 41.287L20.503 41.4718L21.9811 35.4246C22.6385 35.541 23.3102 35.6128 24.0001 35.6128C24.6783 35.6128 25.3387 35.5425 25.9851 35.4303L27.1309 41.5448L27.9138 41.369C31.3239 40.6039 34.4132 38.8589 36.8472 36.3228L37.3837 35.7629L32.8863 31.461C33.744 30.4403 34.4207 29.2685 34.8898 27.9949L40.7606 30.0604L40.9998 29.2945C42.0421 25.9585 42.0753 22.4115 41.0951 19.0357ZM28.629 8.41929C31.1852 9.17723 33.4972 10.5374 35.3885 12.398L31.8301 15.4498C30.6046 14.3263 29.1446 13.4553 27.524 12.9382L28.629 8.41929ZM19.6468 8.3365L20.5075 12.9257C18.8851 13.4391 17.4225 14.307 16.1939 15.4282L12.8208 12.201C14.7555 10.3665 17.0898 9.04417 19.6468 8.3365ZM8.19339 27.7828C7.57003 25.1892 7.59347 22.5064 8.25841 19.9384L12.6681 21.4899C12.4885 22.2992 12.3872 23.1377 12.3872 23.9999C12.3872 24.8509 12.4855 25.6791 12.6597 26.4783L8.19339 27.7828ZM19.3712 39.5806C16.8139 38.8226 14.5022 37.4625 12.6117 35.6019L16.1689 32.5501C17.3945 33.6736 18.8548 34.5445 20.475 35.0617L19.3712 39.5806ZM28.3534 39.6634L27.4934 35.0742C29.1159 34.5608 30.5785 33.6929 31.8071 32.5728L35.1794 35.7988C33.2439 37.6334 30.9096 38.955 28.3534 39.6634ZM24.0001 34.0645C18.4507 34.0645 13.9356 29.5493 13.9356 23.9999C13.9356 18.4505 18.4507 13.9354 24.0001 13.9354C29.5495 13.9354 34.0646 18.4505 34.0646 23.9999C34.0646 29.5493 29.5495 34.0645 24.0001 34.0645ZM39.7418 28.0614L35.3321 26.51C35.5117 25.6999 35.613 24.8622 35.613 23.9999C35.613 23.149 35.5147 22.3208 35.3404 21.5216L39.8068 20.2182C40.4302 22.8107 40.4067 25.4935 39.7418 28.0614Z" fill="#141414"/>
<path d="M24 17.0322C20.1577 17.0322 17.0322 20.1585 17.0322 24C17.0322 27.8422 20.1577 30.9677 24 30.9677C27.8422 30.9677 30.9677 27.8422 30.9677 24C30.9677 20.1585 27.8422 17.0322 24 17.0322ZM24 29.4193C21.0124 29.4193 18.5806 26.9875 18.5806 24C18.5806 21.0117 21.0124 18.5806 24 18.5806C26.9875 18.5806 29.4193 21.0117 29.4193 24C29.4193 26.9875 26.9875 29.4193 24 29.4193Z" fill="#141414"/>
</g>
<defs>
<clipPath id="clip0_3593_4265">
<rect width="48" height="48" fill="white"/>
</clipPath>
</defs>
</svg>
