<svg width="48" height="48" viewBox="0 0 48 48" fill="none" xmlns="http://www.w3.org/2000/svg">
<path d="M27.0862 31.691C33.0515 31.691 37.8873 26.8552 37.8873 20.8899C37.8873 14.9247 33.0515 10.0889 27.0862 10.0889C21.121 10.0889 16.2852 14.9247 16.2852 20.8899C16.2852 26.8552 21.121 31.691 27.0862 31.691Z" fill="#FCAB1E"/>
<path d="M43.1111 3.14543C37.6952 3.14543 32.4004 2.12548 27.3733 0.115047L27.0862 0L26.8 0.114882C21.7722 2.12548 16.4772 3.14527 11.0613 3.14527H9.34155V19.3469H5.48411C4.20806 19.3469 3.16968 20.3853 3.16968 21.6614V34.777C3.16968 36.0531 4.20806 37.0916 5.48411 37.0916H12.4276C12.429 37.0916 12.4299 37.0916 12.4314 37.0916C14.2537 39.987 16.7788 42.3787 19.7892 44.0198L27.0861 48L34.3829 44.0198C40.828 40.5048 44.8306 33.761 44.8306 26.4203V3.14543H43.1111ZM4.71252 34.777V21.6614C4.71252 21.2362 5.05816 20.89 5.48394 20.89H12.4274C12.8532 20.89 13.1988 21.2364 13.1988 21.6614V34.777C13.1988 35.2022 12.8532 35.5486 12.4274 35.5486H5.48411C5.05816 35.5486 4.71252 35.2022 4.71252 34.777ZM14.7422 23.1976C17.3183 23.0581 19.3712 20.9178 19.3712 18.3079V14.3323C19.3712 13.2692 20.2361 12.4035 21.3 12.4035C22.3639 12.4035 23.2288 13.2691 23.2288 14.3323V19.1881C23.2288 20.5521 24.3383 21.6615 25.7022 21.6615H31.3581C32.8308 21.6615 34.0299 22.8597 34.0299 24.3333V32.8769C34.0299 34.3504 32.831 35.5486 31.3581 35.5486H19.9907C19.3781 35.5486 18.8103 35.2438 18.4701 34.7347C17.8437 33.7951 16.7951 33.2342 15.6657 33.2342H14.7422V23.1976ZM43.2877 26.4201C43.2877 33.1955 39.5931 39.4207 33.6447 42.6649L27.0862 46.2424L20.5277 42.6649C17.8437 41.2006 15.5755 39.092 13.9075 36.5414C14.3758 36.1479 14.6837 35.5771 14.7269 34.9289C16.2837 37.6145 18.5257 39.8149 21.2669 41.31L27.0864 44.4847L32.9059 41.31C38.3582 38.3366 41.7451 32.6313 41.7451 26.4208V14.7179H40.2021V26.4209C40.2021 32.0659 37.1238 37.2529 32.1675 39.9555L27.0864 42.7268L22.0052 39.9555C19.8312 38.7696 18.0049 37.0939 16.6324 35.0664C16.8477 35.2013 17.0406 35.3727 17.1865 35.5911C17.8129 36.5307 18.8615 37.0916 19.9909 37.0916H31.3583C33.6827 37.0916 35.573 35.2007 35.573 32.8769V24.3333C35.573 22.0095 33.6829 20.1185 31.3583 20.1185H25.7024C25.1894 20.1185 24.772 19.7011 24.772 19.1881V14.3323C24.772 12.4181 23.2143 10.8605 21.3002 10.8605C19.386 10.8605 17.8283 12.4181 17.8283 14.3323V18.3071C17.8283 20.0662 16.4636 21.4965 14.7392 21.6345C14.7315 20.9642 14.4344 20.3669 13.9707 19.9488V7.68575C18.4516 7.41039 22.8593 6.49463 27.0862 4.95919C31.3133 6.49446 35.7202 7.41023 40.2017 7.68575V8.54605H41.7447V6.21763L41.0087 6.18372C36.338 5.97009 31.7437 5.03803 27.3539 3.41404L27.0861 3.31447L26.8183 3.41322C22.4276 5.0372 17.8333 5.96926 13.1634 6.1829L12.4274 6.21763V19.3471H10.8844V4.68844H11.061C16.5719 4.68844 21.9608 3.66997 27.0859 1.66102C32.211 3.66997 37.5999 4.68844 43.1108 4.68844H43.2874V26.4201H43.2877Z" fill="#141414"/>
<path d="M41.7447 11.6318H40.2017V13.1748H41.7447V11.6318Z" fill="#141414"/>
<path d="M11.6561 32.4626H6.25562V34.0057H11.6561V32.4626Z" fill="#141414"/>
</svg>
