<svg width="48" height="48" viewBox="0 0 48 48" fill="none" xmlns="http://www.w3.org/2000/svg">
<rect width="48" height="48" rx="24" fill="#F7752A"/>
<path fill-rule="evenodd" clip-rule="evenodd" d="M32 22.0001C32.0003 22.9372 31.781 23.8615 31.3598 24.6986C30.9386 25.5358 30.3271 26.2627 29.5744 26.821C28.8216 27.3792 27.9486 27.7535 27.0252 27.9136C26.1018 28.0737 25.1538 28.0153 24.257 27.7431L24 28.0001L23 29.0001L22 30.0001H20V32.0001H16V28.0001L20.257 23.7431C20.0074 22.9181 19.9386 22.049 20.055 21.195C20.1715 20.341 20.4706 19.5221 20.932 18.7941C21.3934 18.0661 22.0062 17.446 22.7287 16.9761C23.4512 16.5062 24.2665 16.1974 25.1191 16.0709C25.9716 15.9443 26.8415 16.003 27.6693 16.2428C28.4972 16.4826 29.2637 16.8979 29.9166 17.4605C30.5696 18.0232 31.0936 18.7199 31.4531 19.5032C31.8127 20.2866 31.9992 21.1382 32 22.0001ZM26 18.0001C25.7348 18.0001 25.4804 18.1054 25.2929 18.293C25.1054 18.4805 25 18.7349 25 19.0001C25 19.2653 25.1054 19.5196 25.2929 19.7072C25.4804 19.8947 25.7348 20.0001 26 20.0001C26.5304 20.0001 27.0391 20.2108 27.4142 20.5859C27.7893 20.9609 28 21.4696 28 22.0001C28 22.2653 28.1054 22.5196 28.2929 22.7072C28.4804 22.8947 28.7348 23.0001 29 23.0001C29.2652 23.0001 29.5196 22.8947 29.7071 22.7072C29.8946 22.5196 30 22.2653 30 22.0001C30 20.9392 29.5786 19.9218 28.8284 19.1716C28.0783 18.4215 27.0609 18.0001 26 18.0001Z" fill="#FEFEFF"/>
</svg>
