<svg width="13" height="16" viewBox="0 0 13 16" fill="none" xmlns="http://www.w3.org/2000/svg">
<path fill-rule="evenodd" clip-rule="evenodd" d="M2.5 0C1.96957 0 1.46086 0.210714 1.08579 0.585786C0.710714 0.960859 0.5 1.46957 0.5 2V14C0.5 14.5304 0.710714 15.0391 1.08579 15.4142C1.46086 15.7893 1.96957 16 2.5 16H10.5C11.0304 16 11.5391 15.7893 11.9142 15.4142C12.2893 15.0391 12.5 14.5304 12.5 14V2C12.5 1.46957 12.2893 0.960859 11.9142 0.585786C11.5391 0.210714 11.0304 0 10.5 0H2.5ZM3.5 2C3.23478 2 2.98043 2.10536 2.79289 2.29289C2.60536 2.48043 2.5 2.73478 2.5 3C2.5 3.26522 2.60536 3.51957 2.79289 3.70711C2.98043 3.89464 3.23478 4 3.5 4H9.5C9.76522 4 10.0196 3.89464 10.2071 3.70711C10.3946 3.51957 10.5 3.26522 10.5 3C10.5 2.73478 10.3946 2.48043 10.2071 2.29289C10.0196 2.10536 9.76522 2 9.5 2H3.5ZM9.5 9C9.76522 9 10.0196 9.10536 10.2071 9.29289C10.3946 9.48043 10.5 9.73478 10.5 10V13C10.5 13.2652 10.3946 13.5196 10.2071 13.7071C10.0196 13.8946 9.76522 14 9.5 14C9.23478 14 8.98043 13.8946 8.79289 13.7071C8.60536 13.5196 8.5 13.2652 8.5 13V10C8.5 9.73478 8.60536 9.48043 8.79289 9.29289C8.98043 9.10536 9.23478 9 9.5 9ZM6.5 12C6.23478 12 5.98043 12.1054 5.79289 12.2929C5.60536 12.4804 5.5 12.7348 5.5 13C5.5 13.2652 5.60536 13.5196 5.79289 13.7071C5.98043 13.8946 6.23478 14 6.5 14H6.51C6.77522 14 7.02957 13.8946 7.21711 13.7071C7.40464 13.5196 7.51 13.2652 7.51 13C7.51 12.7348 7.40464 12.4804 7.21711 12.2929C7.02957 12.1054 6.77522 12 6.51 12H6.5ZM2.5 13C2.5 12.7348 2.60536 12.4804 2.79289 12.2929C2.98043 12.1054 3.23478 12 3.5 12H3.51C3.77522 12 4.02957 12.1054 4.21711 12.2929C4.40464 12.4804 4.51 12.7348 4.51 13C4.51 13.2652 4.40464 13.5196 4.21711 13.7071C4.02957 13.8946 3.77522 14 3.51 14H3.5C3.23478 14 2.98043 13.8946 2.79289 13.7071C2.60536 13.5196 2.5 13.2652 2.5 13ZM3.5 9C3.23478 9 2.98043 9.10536 2.79289 9.29289C2.60536 9.48043 2.5 9.73478 2.5 10C2.5 10.2652 2.60536 10.5196 2.79289 10.7071C2.98043 10.8946 3.23478 11 3.5 11H3.51C3.77522 11 4.02957 10.8946 4.21711 10.7071C4.40464 10.5196 4.51 10.2652 4.51 10C4.51 9.73478 4.40464 9.48043 4.21711 9.29289C4.02957 9.10536 3.77522 9 3.51 9H3.5ZM5.5 10C5.5 9.73478 5.60536 9.48043 5.79289 9.29289C5.98043 9.10536 6.23478 9 6.5 9H6.51C6.77522 9 7.02957 9.10536 7.21711 9.29289C7.40464 9.48043 7.51 9.73478 7.51 10C7.51 10.2652 7.40464 10.5196 7.21711 10.7071C7.02957 10.8946 6.77522 11 6.51 11H6.5C6.23478 11 5.98043 10.8946 5.79289 10.7071C5.60536 10.5196 5.5 10.2652 5.5 10ZM9.5 6C9.23478 6 8.98043 6.10536 8.79289 6.29289C8.60536 6.48043 8.5 6.73478 8.5 7C8.5 7.26522 8.60536 7.51957 8.79289 7.70711C8.98043 7.89464 9.23478 8 9.5 8H9.51C9.77522 8 10.0296 7.89464 10.2171 7.70711C10.4046 7.51957 10.51 7.26522 10.51 7C10.51 6.73478 10.4046 6.48043 10.2171 6.29289C10.0296 6.10536 9.77522 6 9.51 6H9.5ZM5.5 7C5.5 6.73478 5.60536 6.48043 5.79289 6.29289C5.98043 6.10536 6.23478 6 6.5 6H6.51C6.77522 6 7.02957 6.10536 7.21711 6.29289C7.40464 6.48043 7.51 6.73478 7.51 7C7.51 7.26522 7.40464 7.51957 7.21711 7.70711C7.02957 7.89464 6.77522 8 6.51 8H6.5C6.23478 8 5.98043 7.89464 5.79289 7.70711C5.60536 7.51957 5.5 7.26522 5.5 7ZM3.5 6C3.23478 6 2.98043 6.10536 2.79289 6.29289C2.60536 6.48043 2.5 6.73478 2.5 7C2.5 7.26522 2.60536 7.51957 2.79289 7.70711C2.98043 7.89464 3.23478 8 3.5 8H3.51C3.77522 8 4.02957 7.89464 4.21711 7.70711C4.40464 7.51957 4.51 7.26522 4.51 7C4.51 6.73478 4.40464 6.48043 4.21711 6.29289C4.02957 6.10536 3.77522 6 3.51 6H3.5Z" fill="#FEFEFF"/>
</svg>
