<svg width="17" height="14" viewBox="0 0 17 14" fill="none" xmlns="http://www.w3.org/2000/svg">
<path fill-rule="evenodd" clip-rule="evenodd" d="M6.20679 0.292908C6.39426 0.480436 6.49957 0.734744 6.49957 0.999908C6.49957 1.26507 6.39426 1.51938 6.20679 1.70691L3.91379 3.99991H9.49979C11.3563 3.99991 13.1368 4.73741 14.4495 6.05016C15.7623 7.36292 16.4998 9.14339 16.4998 10.9999V12.9999C16.4998 13.2651 16.3944 13.5195 16.2069 13.707C16.0194 13.8946 15.765 13.9999 15.4998 13.9999C15.2346 13.9999 14.9802 13.8946 14.7927 13.707C14.6051 13.5195 14.4998 13.2651 14.4998 12.9999V10.9999C14.4998 9.67383 13.973 8.40206 13.0353 7.46437C12.0976 6.52669 10.8259 5.99991 9.49979 5.99991H3.91379L6.20679 8.29291C6.3023 8.38516 6.37848 8.4955 6.43089 8.6175C6.4833 8.73951 6.51088 8.87073 6.51204 9.00351C6.51319 9.13629 6.48789 9.26797 6.43761 9.39086C6.38733 9.51376 6.31307 9.62541 6.21918 9.7193C6.12529 9.8132 6.01364 9.88745 5.89074 9.93773C5.76784 9.98801 5.63616 10.0133 5.50339 10.0122C5.37061 10.011 5.23939 9.98342 5.11738 9.93101C4.99538 9.8786 4.88503 9.80242 4.79279 9.70691L0.792786 5.70691C0.605315 5.51938 0.5 5.26507 0.5 4.99991C0.5 4.73474 0.605315 4.48044 0.792786 4.29291L4.79279 0.292908C4.98031 0.105437 5.23462 0.00012207 5.49979 0.00012207C5.76495 0.00012207 6.01926 0.105437 6.20679 0.292908Z" fill="#F7752A"/>
</svg>
