<svg width="18" height="17" viewBox="0 0 18 17" fill="none" xmlns="http://www.w3.org/2000/svg">
<path fill-rule="evenodd" clip-rule="evenodd" d="M6.42202 0.910997C6.35333 0.654798 6.18568 0.436379 5.95595 0.303791C5.72621 0.171203 5.45322 0.135306 5.19702 0.203997C4.94082 0.272688 4.7224 0.440341 4.58981 0.670073C4.45723 0.899805 4.42133 1.1728 4.49002 1.429L4.74902 2.395C4.81771 2.6512 4.98536 2.86961 5.2151 3.0022C5.44483 3.13479 5.71782 3.17069 5.97402 3.102C6.23022 3.03331 6.44864 2.86565 6.58123 2.63592C6.71382 2.40619 6.74971 2.1332 6.68102 1.877L6.42102 0.910997H6.42202ZM2.17902 3.74C2.05194 3.70536 1.91927 3.69616 1.78863 3.71294C1.65799 3.72972 1.53195 3.77214 1.41775 3.83777C1.30355 3.90339 1.20344 3.99094 1.12317 4.09537C1.0429 4.19979 0.984054 4.31905 0.950005 4.44629C0.915957 4.57353 0.90738 4.70624 0.924767 4.8368C0.942154 4.96736 0.985163 5.0932 1.05132 5.20709C1.11748 5.32099 1.20549 5.42069 1.31029 5.50047C1.4151 5.58025 1.53463 5.63854 1.66202 5.672L2.62802 5.931C2.88376 5.99816 3.15568 5.9613 3.38432 5.82848C3.61295 5.69567 3.77968 5.47772 3.84803 5.22229C3.91638 4.96687 3.88079 4.69478 3.74904 4.46553C3.6173 4.23628 3.40012 4.06854 3.14502 3.999L2.17902 3.739V3.74ZM10.993 3.171C11.0859 3.07809 11.1595 2.9678 11.2097 2.84643C11.2599 2.72506 11.2858 2.59499 11.2857 2.46364C11.2857 2.3323 11.2598 2.20224 11.2095 2.08091C11.1591 1.95958 11.0854 1.84934 10.9925 1.7565C10.8996 1.66365 10.7893 1.59002 10.668 1.5398C10.5466 1.48957 10.4165 1.46375 10.2852 1.46379C10.1538 1.46384 10.0238 1.48976 9.90243 1.54007C9.7811 1.59037 9.67087 1.66409 9.57802 1.757L8.87102 2.464C8.77811 2.55691 8.70441 2.66721 8.65413 2.7886C8.60385 2.90999 8.57796 3.0401 8.57796 3.1715C8.57796 3.30289 8.60385 3.433 8.65413 3.55439C8.70441 3.67579 8.77811 3.78609 8.87102 3.879C8.96393 3.97191 9.07423 4.04561 9.19562 4.09589C9.31702 4.14617 9.44713 4.17205 9.57852 4.17205C9.70992 4.17205 9.84002 4.14617 9.96142 4.09589C10.0828 4.04561 10.1931 3.97191 10.286 3.879L10.993 3.171ZM3.92202 10.243L4.62902 9.536C4.81679 9.34849 4.92239 9.09407 4.92258 8.8287C4.92276 8.56334 4.81753 8.30877 4.63002 8.121C4.44251 7.93322 4.18809 7.82763 3.92273 7.82744C3.65736 7.82725 3.40279 7.93249 3.21502 8.12L2.50702 8.827C2.31938 9.01464 2.21396 9.26913 2.21396 9.5345C2.21396 9.79986 2.31938 10.0544 2.50702 10.242C2.69466 10.4296 2.94916 10.5351 3.21452 10.5351C3.47988 10.5351 3.73438 10.4296 3.92202 10.242V10.243ZM7.12202 5.072C6.94029 4.99926 6.74121 4.98145 6.54946 5.02078C6.35771 5.06012 6.18172 5.15487 6.0433 5.29328C5.90489 5.43169 5.81014 5.60768 5.77081 5.79944C5.73147 5.99119 5.74928 6.19027 5.82202 6.372L9.82202 16.372C9.89369 16.551 10.0156 16.7054 10.173 16.8167C10.3304 16.928 10.5166 16.9915 10.7093 16.9994C10.9019 17.0073 11.0927 16.9594 11.2587 16.8614C11.4247 16.7634 11.5589 16.6195 11.645 16.447L13.025 13.688L16.043 16.708C16.2307 16.8955 16.4851 17.0008 16.7504 17.0007C17.0156 17.0006 17.27 16.8951 17.4575 16.7075C17.645 16.5199 17.7503 16.2654 17.7502 16.0001C17.7501 15.7349 17.6447 15.4805 17.457 15.293L14.438 12.273L17.198 10.894C17.3702 10.8077 17.5137 10.6734 17.6115 10.5075C17.7092 10.3415 17.7569 10.1509 17.7489 9.95844C17.7408 9.76601 17.6774 9.57999 17.5662 9.42274C17.455 9.26549 17.3008 9.1437 17.122 9.072L7.12202 5.072Z" fill="#FEFEFF"/>
</svg>
