<svg width="17" height="10" viewBox="0 0 17 10" fill="none" xmlns="http://www.w3.org/2000/svg">
<path fill-rule="evenodd" clip-rule="evenodd" d="M11.043 0.299043C11.2305 0.111572 11.4848 0.0062561 11.75 0.0062561C12.0152 0.0062561 12.2695 0.111572 12.457 0.299043L16.457 4.29904C16.6445 4.48657 16.7498 4.74088 16.7498 5.00604C16.7498 5.27121 16.6445 5.52551 16.457 5.71304L12.457 9.71304C12.2684 9.8952 12.0158 9.99599 11.7536 9.99372C11.4914 9.99144 11.2406 9.88627 11.0552 9.70086C10.8698 9.51545 10.7646 9.26464 10.7623 9.00244C10.76 8.74025 10.8608 8.48765 11.043 8.29904L13.336 6.00604H1.75C1.48478 6.00604 1.23043 5.90069 1.04289 5.71315C0.855357 5.52561 0.75 5.27126 0.75 5.00604C0.75 4.74083 0.855357 4.48647 1.04289 4.29894C1.23043 4.1114 1.48478 4.00604 1.75 4.00604H13.336L11.043 1.71304C10.8555 1.52551 10.7502 1.27121 10.7502 1.00604C10.7502 0.740878 10.8555 0.48657 11.043 0.299043Z" fill="#FEFEFF"/>
</svg>
