<svg width="188" height="32" viewBox="0 0 188 32" fill="none" xmlns="http://www.w3.org/2000/svg">
<path fill-rule="evenodd" clip-rule="evenodd" d="M15.6234 27.2C21.6634 27.2 26.5598 22.1856 26.5598 16C26.5598 9.81441 21.6634 4.8 15.6234 4.8C9.58342 4.8 4.68703 9.81441 4.68703 16C4.68703 22.1856 9.58342 27.2 15.6234 27.2ZM15.6234 32C24.252 32 31.2469 24.8366 31.2469 16C31.2469 7.16344 24.252 0 15.6234 0C6.99485 0 0 7.16344 0 16C0 24.8366 6.99485 32 15.6234 32Z" fill="#F7752A"/>
<path d="M15.6234 8.63998L19.8215 12.9514C22.14 15.3325 22.14 19.193 19.8215 21.5742C17.5029 23.9553 13.7439 23.9553 11.4254 21.5742C9.1069 19.193 9.1069 15.3325 11.4254 12.9514L15.6234 8.63998Z" fill="#FC2F1E"/>
<path d="M15.6234 12.4745L18.4574 15.3851C20.0226 16.9925 20.0226 19.5986 18.4574 21.2061C16.8923 22.8135 14.3546 22.8135 12.7895 21.2061C11.2243 19.5986 11.2243 16.9925 12.7895 15.3851L15.6234 12.4745Z" fill="#F7752A"/>
<path d="M15.6235 15.68L17.2265 17.3263C18.1118 18.2356 18.1118 19.7098 17.2265 20.619C16.3412 21.5283 14.9057 21.5283 14.0204 20.619C13.1351 19.7098 13.1351 18.2356 14.0204 17.3263L15.6235 15.68Z" fill="#FCAB1E"/>
<path d="M52.1524 9.1456V25.44H48.234V13.0125H41.7034V25.44H37.785V9.1456H52.1524Z" fill="#FEFEFF"/>
<path d="M59.0841 19.9194L63.5486 13.28H67.2295V25.44H63.5486V18.8006L59.0841 25.44H55.4032V13.28H59.0841V19.9194Z" fill="#FEFEFF"/>
<path d="M80.3671 13.28V16.8794H76.6387V25.44H72.9579V16.8794H69.2057V13.28H80.3671Z" fill="#FEFEFF"/>
<path d="M87.814 12.9152C89.793 12.9152 91.3524 13.6448 92.4923 15.104C93.6322 16.547 94.0834 18.3791 93.8459 20.6003H85.2968C85.4234 21.1029 85.6926 21.5245 86.1042 21.865C86.5158 22.2054 87.0462 22.4081 87.6953 22.473C88.1544 22.5054 88.5977 22.4405 89.0252 22.2784C89.4526 22.1001 89.7613 21.8569 89.9513 21.5488H93.7747C93.4105 22.8945 92.6744 23.9403 91.5661 24.6861C90.4738 25.4319 89.1993 25.8048 87.7428 25.8048C85.8113 25.8048 84.2994 25.1887 83.207 23.9565C82.1304 22.7081 81.5921 21.1759 81.5921 19.36C81.5921 17.5117 82.17 15.9795 83.3257 14.7635C84.4973 13.5313 85.9934 12.9152 87.814 12.9152ZM87.7903 16.2227C87.2045 16.2227 86.69 16.3686 86.2467 16.6605C85.8192 16.9361 85.5184 17.3171 85.3443 17.8035H90.2125C89.8642 16.7497 89.0568 16.2227 87.7903 16.2227Z" fill="#FEFEFF"/>
<path d="M103.556 12.9152C105.171 12.9152 106.485 13.5313 107.498 14.7635C108.527 15.9795 109.042 17.5279 109.042 19.4086C109.042 21.3056 108.52 22.8459 107.475 24.0294C106.446 25.213 105.139 25.8048 103.556 25.8048C102.765 25.8048 102.052 25.6346 101.419 25.2941C100.786 24.9536 100.279 24.5077 99.8991 23.9565H99.8042V30.304H96.147V13.28H99.8042V14.7635H99.8991C100.279 14.2123 100.786 13.7664 101.419 13.4259C102.052 13.0854 102.765 12.9152 103.556 12.9152ZM102.559 22.2541C103.35 22.2541 104.007 21.9866 104.53 21.4515C105.052 20.9003 105.314 20.2031 105.314 19.36C105.314 18.5169 105.052 17.8278 104.53 17.2928C104.007 16.7415 103.35 16.4659 102.559 16.4659C101.767 16.4659 101.11 16.7415 100.588 17.2928C100.065 17.8441 99.8042 18.5331 99.8042 19.36C99.8042 20.1707 100.057 20.8597 100.564 21.4272C101.087 21.9785 101.751 22.2541 102.559 22.2541Z" fill="#FEFEFF"/>
<path d="M125.971 8.9856L122.29 15.0899C124.522 15.1386 125.638 16.387 125.638 18.8352V25.28H121.72V19.7594C121.72 19.1595 121.419 18.8595 120.817 18.8595H115.474V25.28H111.556V8.9856H115.474V15.0899H118.063L121.672 8.9856H125.971Z" fill="#F7752A"/>
<path d="M136.797 14.6035V13.12H140.454V25.28H136.797V23.7965H136.702C136.322 24.3477 135.815 24.7936 135.182 25.1341C134.549 25.4746 133.836 25.6448 133.045 25.6448C131.462 25.6448 130.148 25.053 129.103 23.8694C128.074 22.6859 127.559 21.1456 127.559 19.2486C127.559 17.3679 128.066 15.8195 129.079 14.6035C130.108 13.3713 131.43 12.7552 133.045 12.7552C133.836 12.7552 134.549 12.9254 135.182 13.2659C135.815 13.6064 136.322 14.0523 136.702 14.6035H136.797ZM134.042 22.0941C134.85 22.0941 135.507 21.8184 136.013 21.2672C136.536 20.6997 136.797 20.0107 136.797 19.2C136.797 18.3731 136.536 17.684 136.013 17.1328C135.491 16.5815 134.834 16.3059 134.042 16.3059C133.251 16.3059 132.594 16.5815 132.071 17.1328C131.549 17.6678 131.288 18.3569 131.288 19.2C131.288 20.0431 131.549 20.7403 132.071 21.2915C132.594 21.8266 133.251 22.0941 134.042 22.0941Z" fill="#F7752A"/>
<path d="M158.827 13.12V25.28H155.146V17.4733L152.51 25.28H149.636L147 17.4246V25.28H143.319V13.12H149.066L151.132 19.4918L153.198 13.12H158.827Z" fill="#F7752A"/>
<path d="M165.39 19.7594L169.854 13.12H173.535V25.28H169.854V18.6406L165.39 25.28H161.709V13.12H165.39V19.7594Z" fill="#F7752A"/>
<path d="M184.319 17.3517V13.12H188V25.28H184.319V20.9024H180.092V25.28H176.411V13.12H180.092V17.3517H184.319Z" fill="#F7752A"/>
</svg>
