<svg width="48" height="48" viewBox="0 0 48 48" fill="none" xmlns="http://www.w3.org/2000/svg">
<path fill-rule="evenodd" clip-rule="evenodd" d="M19.05 18.05C20.3628 16.7372 22.1434 15.9996 24 15.9996C25.8566 15.9996 27.6372 16.7372 28.95 18.05C30.2628 19.3628 31.0004 21.1434 31.0004 23C31.0004 24.8566 30.2628 26.6372 28.95 27.95L24 32.9L19.05 27.95C18.3999 27.3 17.8843 26.5283 17.5324 25.6789C17.1806 24.8296 16.9995 23.9193 16.9995 23C16.9995 22.0807 17.1806 21.1704 17.5324 20.321C17.8843 19.4717 18.3999 18.7 19.05 18.05ZM24 25C24.5304 25 25.0392 24.7893 25.4142 24.4142C25.7893 24.0391 26 23.5304 26 23C26 22.4696 25.7893 21.9609 25.4142 21.5858C25.0392 21.2107 24.5304 21 24 21C23.4696 21 22.9609 21.2107 22.5858 21.5858C22.2107 21.9609 22 22.4696 22 23C22 23.5304 22.2107 24.0391 22.5858 24.4142C22.9609 24.7893 23.4696 25 24 25Z" fill="#141414"/>
</svg>
