<svg width="48" height="48" viewBox="0 0 48 48" fill="none" xmlns="http://www.w3.org/2000/svg">
<path fill-rule="evenodd" clip-rule="evenodd" d="M14 40H34L33.6308 15.3846H26.3077V8H21.3846V15.3846H14V40ZM14.7385 27.8769L14.9231 16.3077L33.0769 15.9385V39.3846H14.6154L14.7385 27.8769ZM27.2923 20.6769L29.3846 21.6615V35.6923H18.3077V21.6L20.1538 20.6154C22.4308 19.4462 24.6462 19.4462 27.2923 20.6769ZM18.9231 22.1538V28.6154C18.9231 34.7692 18.9846 35.0769 20.2154 35.0769C21.3846 35.0769 21.4462 34.8308 21.0769 32.6769C20.6462 29.9692 21.5077 27.6923 22.9846 27.6923C23.7231 27.6923 23.9077 27.3231 23.6 26.0923C23.2923 24.9846 23.4154 24.6154 23.9077 24.9231C25.0769 25.7231 26.3077 29.3538 26.3077 32.3077C26.3077 34.7077 26.4923 35.0769 27.5385 35.0769C28.7692 35.0769 28.8308 34.7692 28.6462 28.4923L28.4615 21.8462L25.8769 20.9231C23.5385 20.1231 23.0462 20.1846 21.0769 21.1077L18.9231 22.1538ZM22 33.5385C22 32.3692 23.7846 29.5385 24.5231 29.5385C24.8308 29.5385 25.0769 30.6462 25.0769 32C25.0769 34.2154 24.9538 34.4615 23.5385 34.4615C22.5538 34.4615 22 34.0923 22 33.5385ZM24.0308 8.73846C22.4308 8.92308 22.3077 9.16923 22.1231 12.1846L21.9385 15.3846H23.7846C24.5528 15.3846 25.0117 15.3846 25.2858 15.1596C25.6923 14.8258 25.6923 13.9969 25.6923 11.9385C25.6923 8.61538 25.6923 8.55385 24.0308 8.73846Z" fill="#141414" stroke="#141414" stroke-width="0.6"/>
</svg>
