<svg width="48" height="48" viewBox="0 0 48 48" fill="none" xmlns="http://www.w3.org/2000/svg">
<path fill-rule="evenodd" clip-rule="evenodd" d="M34.7424 34.3304C34.5878 33.3913 34.1756 32.4 33.815 32.1913C33.2482 31.8783 33.0937 29.687 33.0937 21.913V12H14.5457V21.913C14.5457 30.2609 14.4426 31.9304 13.7728 32.1391C13.3091 32.3478 13 33.1304 13 34.2261V36H35L34.7424 34.3304ZM34.1756 32.8696L34.0211 34.0696C33.8666 35.2166 33.8151 35.2174 23.7377 35.3736L23.7166 35.3739L13.5152 35.4783V32.8696H34.1756ZM15.0609 12.5217V32.3478H32.5785V12.5217H15.0609ZM29.4871 30.2609V18.313L18.4098 18.5217L18.1007 30.2609H29.4871ZM28.9719 29.7391H27.4778C26.0351 29.7391 25.9836 29.6348 26.2412 28.0174C26.3958 26.8696 26.1382 25.513 25.3653 23.8435C24.0773 21.0783 23.2014 20.6087 23.6651 22.9565C23.8712 24.2087 23.8197 24.4696 23.2014 24.2609C21.9133 23.7391 21.089 25.3565 21.3981 27.6522C21.6557 29.687 21.6042 29.7391 20.1616 29.7391H18.6674V19.3043H28.9719V29.7391ZM24.8501 26.087C23.8712 25.4609 22.274 26.6609 22.274 28.0174C22.274 29.8435 24.6955 29.687 25.1593 27.8609C25.3653 26.9739 25.2623 26.3478 24.8501 26.087Z" fill="#141414"/>
<path d="M23.7166 35.3739L13.5152 35.4783V32.8696H34.1756L34.0211 34.0696C33.8666 35.2166 33.8151 35.2174 23.7377 35.3736M23.7166 35.3739L23.7377 35.3736M23.7166 35.3739C23.7237 35.3738 23.7307 35.3737 23.7377 35.3736M34.7424 34.3304C34.5878 33.3913 34.1756 32.4 33.815 32.1913C33.2482 31.8783 33.0937 29.687 33.0937 21.913V12H14.5457V21.913C14.5457 30.2609 14.4426 31.9304 13.7728 32.1391C13.3091 32.3478 13 33.1304 13 34.2261V36H35L34.7424 34.3304ZM15.0609 12.5217V32.3478H32.5785V12.5217H15.0609ZM29.4871 18.313V30.2609H18.1007L18.4098 18.5217L29.4871 18.313ZM18.6674 19.3043V29.7391H20.1616C21.6042 29.7391 21.6557 29.687 21.3981 27.6522C21.089 25.3565 21.9133 23.7391 23.2014 24.2609C23.8197 24.4696 23.8712 24.2087 23.6651 22.9565C23.2014 20.6087 24.0773 21.0783 25.3653 23.8435C26.1382 25.513 26.3958 26.8696 26.2412 28.0174C25.9836 29.6348 26.0351 29.7391 27.4778 29.7391H28.9719V19.3043H18.6674ZM22.274 28.0174C22.274 26.6609 23.8712 25.4609 24.8501 26.087C25.2623 26.3478 25.3653 26.9739 25.1592 27.8609C24.6955 29.687 22.274 29.8435 22.274 28.0174Z" stroke="#141414" stroke-width="0.75"/>
</svg>
