<svg width="20" height="20" viewBox="0 0 20 20" fill="none" xmlns="http://www.w3.org/2000/svg">
<path fill-rule="evenodd" clip-rule="evenodd" d="M5.29279 8.30529C5.48031 8.11782 5.73462 8.0125 5.99979 8.0125C6.26495 8.0125 6.51926 8.11782 6.70679 8.30529L9.99979 11.5983L13.2928 8.30529C13.385 8.20978 13.4954 8.1336 13.6174 8.08119C13.7394 8.02878 13.8706 8.00119 14.0034 8.00004C14.1362 7.99888 14.2678 8.02419 14.3907 8.07447C14.5136 8.12475 14.6253 8.199 14.7192 8.29289C14.8131 8.38679 14.8873 8.49844 14.9376 8.62133C14.9879 8.74423 15.0132 8.87591 15.012 9.00869C15.0109 9.14147 14.9833 9.27269 14.9309 9.39469C14.8785 9.5167 14.8023 9.62704 14.7068 9.71929L10.7068 13.7193C10.5193 13.9068 10.265 14.0121 9.99979 14.0121C9.73462 14.0121 9.48031 13.9068 9.29279 13.7193L5.29279 9.71929C5.10532 9.53176 5 9.27745 5 9.01229C5 8.74712 5.10532 8.49282 5.29279 8.30529Z" fill="#F7752A"/>
</svg>
