<svg width="48" height="48" viewBox="0 0 48 48" fill="none" xmlns="http://www.w3.org/2000/svg">
<path fill-rule="evenodd" clip-rule="evenodd" d="M26.5116 32.6523C20.4796 32.6523 19.0044 32.6523 18.5545 33.3212C18.4088 33.5378 18.3706 33.8244 18.3201 34.2038L18.307 34.3014C18.1953 35.2909 17.7488 35.8406 17.0233 35.9506C15.5721 36.1705 15.0698 35.6757 15.0698 34.0816C15.0698 33.147 14.6791 32.8172 13.5628 32.6523L12 32.4874V18.7446L13.507 18.5797C14.7907 18.4148 15.014 18.1399 15.1814 16.3808L15.3488 14.3469L18.6977 14.2919C22.0497 14.2142 23.0334 14.1914 23.322 13.7388C23.4419 13.5508 23.4419 13.2886 23.4419 12.9176C23.4419 12.258 23.7209 11.8732 24.1674 12.0381C24.5023 12.148 24.7814 12.6428 24.6698 13.1375C24.5581 13.8521 25.2279 14.072 28.5767 14.182L32.6512 14.3469L32.5954 16.2709C32.5954 17.975 32.7628 18.2498 34.2698 18.4697L36 18.7446V32.4874L34.493 32.6523C33.3209 32.8172 32.986 33.147 32.8186 34.3014C32.707 35.4558 32.3721 35.7857 31.2558 35.7857C30.1954 35.7857 29.8047 35.4558 29.5814 34.1915C29.3023 32.7073 29.1349 32.6523 26.5116 32.6523ZM17.3023 15.1714C16.6884 15.1714 16.186 15.4463 16.186 15.7212C16.186 16.051 16.6884 16.2709 17.3023 16.2709C17.9163 16.2709 18.4186 16.051 18.4186 15.7212C18.4186 15.4463 17.9163 15.1714 17.3023 15.1714ZM18.9767 15.7212C18.9767 15.4463 19.5907 15.1714 20.3721 15.1714C21.1535 15.1714 21.7674 15.4463 21.7674 15.7212C21.7674 16.051 21.1535 16.2709 20.3721 16.2709C19.5907 16.2709 18.9767 16.051 18.9767 15.7212ZM25.1163 15.3913C25.1163 14.3469 22.8279 14.5118 22.4372 15.6112C22.3256 15.996 22.7721 16.2709 23.6651 16.2709C24.614 16.2709 25.1163 15.996 25.1163 15.3913ZM25.6744 15.7212C25.6744 15.4463 26.2884 15.1714 27.0698 15.1714C27.8512 15.1714 28.4651 15.4463 28.4651 15.7212C28.4651 16.051 27.8512 16.2709 27.0698 16.2709C26.2884 16.2709 25.6744 16.051 25.6744 15.7212ZM30.4186 15.1714C29.6372 15.1714 29.0233 15.4463 29.0233 15.7212C29.0233 16.051 29.6372 16.2709 30.4186 16.2709C31.2 16.2709 31.814 16.051 31.814 15.7212C31.814 15.4463 31.2 15.1714 30.4186 15.1714ZM16.186 17.975C16.186 17.2054 17.8605 16.9855 23.4419 17.0954C31.0326 17.2054 31.814 17.3153 31.814 17.92C31.814 18.2498 28.8558 18.4697 24 18.4697C19.7023 18.4697 16.186 18.2498 16.186 17.975ZM16.186 22.8674V27.5949C16.186 31.6628 16.2977 32.2675 17.0791 31.9926C17.5814 31.8277 18.8093 31.6628 19.814 31.6628C20.7328 31.6628 21.1933 31.6628 21.3617 31.4444C21.5308 31.225 21.4052 30.7852 21.1535 29.9037C20.8744 28.9143 20.6512 28.0897 20.6512 28.0347C20.6512 27.9797 21.4326 27.1552 22.3814 26.2207L24.1116 24.4066L25.7302 25.9458C27.4047 27.485 27.4605 28.1447 26.4558 30.7833C26.1767 31.4979 26.5674 31.6628 28.9674 31.6628H31.814V22.8674H16.186ZM30.6977 27.2651C30.6977 25.7809 30.4744 24.5166 30.1395 24.5166C29.8605 24.5166 29.5814 25.7809 29.5814 27.2651C29.5814 28.8043 29.8605 30.0137 30.1395 30.0137C30.4744 30.0137 30.6977 28.8043 30.6977 27.2651ZM16.186 33.8617C16.186 33.257 16.4651 32.7622 16.7442 32.7622C17.0791 32.7622 17.3023 33.257 17.3023 33.8617C17.3023 34.4664 17.0791 34.9611 16.7442 34.9611C16.4651 34.9611 16.186 34.4664 16.186 33.8617ZM31.9814 32.5424C31.4233 31.9926 30.6977 32.8172 30.6977 33.9166C30.6977 34.4664 30.9209 34.9611 31.2 34.9611C31.7581 34.9611 32.3721 32.9821 31.9814 32.5424ZM22.3256 30.7833C22.3256 29.7938 24.614 27.7599 25.2279 28.1996C25.507 28.3096 25.6744 29.1341 25.6744 30.0687C25.6744 31.4979 25.507 31.6628 24 31.6628C22.8279 31.6628 22.3256 31.388 22.3256 30.7833ZM12.8372 19.5691V25.616C12.8372 31.278 12.893 31.6628 13.9535 31.6628C14.9023 31.6628 15.014 31.2231 15.1814 26.8803L15.3488 22.0429H32.6512L32.8186 26.8803C32.986 31.2231 33.0977 31.6628 34.0465 31.6628C35.107 31.6628 35.1628 31.278 35.1628 25.616V19.5691H12.8372Z" fill="#F7752A"/>
<path d="M18.307 34.3014C18.1953 35.2909 17.7488 35.8406 17.0233 35.9506C15.5721 36.1705 15.0698 35.6757 15.0698 34.0816C15.0698 33.147 14.6791 32.8172 13.5628 32.6523L12 32.4874V18.7446L13.507 18.5797C14.7907 18.4148 15.014 18.1399 15.1814 16.3808L15.3488 14.3469L18.6977 14.2919C22.0497 14.2142 23.0334 14.1914 23.322 13.7388C23.4419 13.5508 23.4419 13.2886 23.4419 12.9176C23.4419 12.258 23.7209 11.8732 24.1674 12.0381C24.5023 12.148 24.7814 12.6428 24.6698 13.1375C24.5581 13.8521 25.2279 14.072 28.5767 14.182L32.6512 14.3469L32.5954 16.2709C32.5954 17.975 32.7628 18.2498 34.2698 18.4697L36 18.7446V32.4874L34.493 32.6523C33.3209 32.8172 32.986 33.147 32.8186 34.3014C32.707 35.4558 32.3721 35.7857 31.2558 35.7857C30.1953 35.7857 29.8047 35.4558 29.5814 34.1915C29.3023 32.7073 29.1349 32.6523 26.5116 32.6523C20.4796 32.6523 19.0044 32.6523 18.5545 33.3212C18.4088 33.5378 18.3706 33.8244 18.3201 34.2038M18.307 34.3014L18.3201 34.2038M18.307 34.3014C18.3115 34.2682 18.3158 34.2357 18.3201 34.2038M16.186 33.8617C16.186 33.257 16.4651 32.7622 16.7442 32.7622C17.0791 32.7622 17.3023 33.257 17.3023 33.8617C17.3023 34.4664 17.0791 34.9611 16.7442 34.9611C16.4651 34.9611 16.186 34.4664 16.186 33.8617ZM30.6977 33.9166C30.6977 32.8172 31.4233 31.9926 31.9814 32.5424C32.3721 32.9821 31.7581 34.9611 31.2 34.9611C30.9209 34.9611 30.6977 34.4664 30.6977 33.9166ZM16.186 27.5949V22.8674H31.814V31.6628H28.9674C26.5674 31.6628 26.1767 31.4979 26.4558 30.7833C27.4605 28.1447 27.4047 27.485 25.7302 25.9458L24.1116 24.4066L22.3814 26.2207C21.4326 27.1552 20.6512 27.9797 20.6512 28.0347C20.6512 28.0897 20.8744 28.9143 21.1535 29.9037C21.4052 30.7852 21.5308 31.225 21.3617 31.4444C21.1933 31.6628 20.7328 31.6628 19.814 31.6628C18.8093 31.6628 17.5814 31.8277 17.0791 31.9926C16.2977 32.2675 16.186 31.6628 16.186 27.5949ZM30.6977 27.2651C30.6977 25.7809 30.4744 24.5166 30.1395 24.5166C29.8605 24.5166 29.5814 25.7809 29.5814 27.2651C29.5814 28.8043 29.8605 30.0137 30.1395 30.0137C30.4744 30.0137 30.6977 28.8043 30.6977 27.2651ZM12.8372 25.616V19.5691H35.1628V25.616C35.1628 31.278 35.107 31.6628 34.0465 31.6628C33.0977 31.6628 32.986 31.2231 32.8186 26.8803L32.6512 22.0429H15.3488L15.1814 26.8803C15.014 31.2231 14.9023 31.6628 13.9535 31.6628C12.893 31.6628 12.8372 31.278 12.8372 25.616ZM22.3256 30.7833C22.3256 29.7938 24.614 27.7599 25.2279 28.1996C25.507 28.3096 25.6744 29.1341 25.6744 30.0687C25.6744 31.4979 25.507 31.6628 24 31.6628C22.8279 31.6628 22.3256 31.388 22.3256 30.7833ZM16.186 17.975C16.186 17.2054 17.8605 16.9855 23.4419 17.0954C31.0326 17.2054 31.814 17.3153 31.814 17.92C31.814 18.2498 28.8558 18.4697 24 18.4697C19.7023 18.4697 16.186 18.2498 16.186 17.975ZM16.186 15.7212C16.186 15.4463 16.6884 15.1715 17.3023 15.1715C17.9163 15.1715 18.4186 15.4463 18.4186 15.7212C18.4186 16.051 17.9163 16.2709 17.3023 16.2709C16.6884 16.2709 16.186 16.051 16.186 15.7212ZM18.9767 15.7212C18.9767 15.4463 19.5907 15.1715 20.3721 15.1715C21.1535 15.1715 21.7674 15.4463 21.7674 15.7212C21.7674 16.051 21.1535 16.2709 20.3721 16.2709C19.5907 16.2709 18.9767 16.051 18.9767 15.7212ZM22.4372 15.6112C22.8279 14.5118 25.1163 14.3469 25.1163 15.3913C25.1163 15.996 24.614 16.2709 23.6651 16.2709C22.7721 16.2709 22.3256 15.996 22.4372 15.6112ZM25.6744 15.7212C25.6744 15.4463 26.2884 15.1715 27.0698 15.1715C27.8512 15.1715 28.4651 15.4463 28.4651 15.7212C28.4651 16.051 27.8512 16.2709 27.0698 16.2709C26.2884 16.2709 25.6744 16.051 25.6744 15.7212ZM29.0233 15.7212C29.0233 15.4463 29.6372 15.1715 30.4186 15.1715C31.2 15.1715 31.814 15.4463 31.814 15.7212C31.814 16.051 31.2 16.2709 30.4186 16.2709C29.6372 16.2709 29.0233 16.051 29.0233 15.7212Z" stroke="#F7752A" stroke-width="0.25"/>
</svg>
