<svg width="48" height="48" viewBox="0 0 48 48" fill="none" xmlns="http://www.w3.org/2000/svg">
<path fill-rule="evenodd" clip-rule="evenodd" d="M36 18.8081L33.3419 18.6427C31.0714 18.4773 30.4069 18.1465 28.9117 16.4925C27.9149 15.3898 27.1397 14.1769 27.1397 13.7909C27.1397 12.4677 25.9214 11.8612 23.7617 12.0267C22.1557 12.1369 21.5466 12.4677 21.3251 13.3499C21.1589 14.0115 20.2729 15.3898 19.2761 16.4925C17.7809 18.1465 17.1164 18.4773 14.846 18.6427L12.1879 18.8081L12.0217 26.196C11.9663 30.2758 12.0217 33.9698 12.1325 34.3557C12.354 34.9622 14.846 35.0724 24.2047 34.9622L36 34.7968V18.8081ZM20.3283 16.5476C21.6573 15.3898 22.2665 14.3974 22.1004 13.8461C21.8235 13.1845 22.2665 13.0191 24.0939 13.0191C25.9214 13.0191 26.3644 13.1845 26.0875 13.8461C25.9214 14.3974 26.5859 15.3898 27.8596 16.6027L29.9085 18.4773H24.0939L18.2793 18.4221L20.3283 16.5476ZM29.5763 30.6618H32.9543V21.8404H15.2336V30.6618H21.8235L21.2697 28.8975C20.9928 27.9051 20.7713 27.0781 20.7713 27.023C20.7713 26.9678 21.5466 26.1408 22.488 25.2036L24.2047 23.3841L25.8106 24.9279C26.8074 25.9203 27.3058 26.8024 27.1397 27.464C26.9735 28.0154 26.6967 28.9526 26.5305 29.5591C26.2536 30.5515 26.4751 30.6618 29.5763 30.6618ZM13.0185 19.6351L16.5073 19.5799C18.3901 19.5248 21.5466 19.4145 23.5402 19.3043C25.5337 19.1389 28.9671 19.194 31.1822 19.4145L35.1693 19.7453V33.9698H13.0185V19.6351ZM14.2368 25.6446L14.4029 21.0134H33.7849V31.4888L24.2047 31.6542C16.5626 31.7644 14.6244 31.6542 14.3476 31.0477C14.1814 30.6066 14.1261 28.1808 14.2368 25.6446ZM25.3122 27.1884C24.7031 26.7473 22.4326 28.7872 22.4326 29.7796C22.4326 30.3861 22.931 30.6618 24.0939 30.6618C25.5891 30.6618 25.7552 30.4964 25.7552 29.0629C25.7552 28.1256 25.5891 27.2986 25.3122 27.1884Z" fill="#141414" stroke="#141414" stroke-width="0.5"/>
</svg>
