<svg width="48" height="48" viewBox="0 0 48 48" fill="none" xmlns="http://www.w3.org/2000/svg">
<path fill-rule="evenodd" clip-rule="evenodd" d="M35.311 13.8857C34.9665 14.9143 34.5646 20.2286 34.4498 25.8857L34.2775 36H13.7225L13.5502 25.8857C13.4354 20.2286 13.0335 14.9143 12.689 13.8857L12 12H36L35.311 13.8857ZM18.2584 18.2857V25.7143H29.7416V18.2857H18.2584ZM14.5263 34.7429C14.3541 34.3429 14.1818 29.7143 14.1244 24.4L13.9522 14.8571H33.7608V35.4286H24.2871C17.1675 35.4286 14.6986 35.2571 14.5263 34.7429ZM28.9378 28.2857C30.1435 28.2857 30.3158 28.5714 30.3158 30.4571V32.5714H17.6842V28.5714L22.4498 28.6286C25.0335 28.6857 26.6986 28.8 26.1818 28.9714C25.6651 29.0857 25.0909 29.6571 24.9761 30.1714C24.7464 30.9714 24.689 30.9714 24.6316 30.2286C24.5742 29.5429 23.8278 29.3143 21.3589 29.2571C18.4306 29.2 18.201 29.3143 18.3732 30.4571C18.5455 31.5429 18.9474 31.6571 24.1722 31.8286L29.7416 32V30.5714C29.7416 29.7143 29.3971 29.1429 28.9378 29.1429C28.4785 29.1429 27.9617 28.9714 27.8469 28.7429C27.6746 28.4571 28.1914 28.2857 28.9378 28.2857ZM30.3158 17.7143V26.2857H17.6842V17.7143H30.3158ZM24.0574 12.5714C14.0096 12.5714 12.3445 12.8 13.4928 13.9429C13.7225 14.1143 18.5455 14.2286 24.2297 14.1714C31.866 14.0571 34.5646 13.8286 34.7943 13.3143C34.9665 12.7429 32.555 12.5714 24.0574 12.5714Z" fill="#141414" stroke="#141414" stroke-width="0.75"/>
</svg>
