<svg width="48" height="48" viewBox="0 0 48 48" fill="none" xmlns="http://www.w3.org/2000/svg">
<path fill-rule="evenodd" clip-rule="evenodd" d="M34.7281 15.9976C34.1198 16.3262 33.9539 18.4619 33.9539 25.6905V35H14.0461V25.6905C14.0461 18.4619 13.8802 16.3262 13.2719 15.9976C12.8848 15.7786 12.4424 14.7381 12.2765 13.8071L12 12H36L35.7235 13.8071C35.5576 14.7381 35.1152 15.7786 34.7281 15.9976ZM34.9493 13.8071L35.1152 12.5476H12.9401V15.2857L23.8894 15.1762L23.912 15.1758C34.7282 15.0119 34.7835 15.0111 34.9493 13.8071ZM30.0829 34.4524V28.7571C30.0829 28.5341 30.0832 28.3189 30.0835 28.1113C30.0869 25.209 30.0886 23.7811 29.3685 23.0793C28.6711 22.3996 27.2965 22.4012 24.5906 22.4043L24.5888 22.4043C24.3992 22.4045 24.203 22.4048 24 22.4048C23.797 22.4048 23.6008 22.4045 23.4112 22.4043L23.4094 22.4043C20.7035 22.4012 19.3289 22.3996 18.6315 23.0793C17.9114 23.7811 17.9131 25.209 17.9165 28.1113V28.1126C17.9168 28.3198 17.9171 28.5346 17.9171 28.7571V34.4524H14.5991V15.8333H33.4009V34.4524H30.0829ZM19.4654 23.5C18.5806 23.5 18.47 24.1571 18.47 28.9762V34.4524H20.0184C21.5115 34.4524 21.5668 34.3429 21.5668 31.8786C21.5115 29.6333 21.7327 29.1405 22.7834 28.7024C23.7788 28.2643 23.9447 27.881 23.7235 26.5119C23.3917 24.9238 23.447 24.9238 24.3318 25.9643C26.4885 28.5929 27.5945 33.3571 25.9908 33.3571C25.5484 33.3571 25.2719 32.7548 25.2719 31.9881C25.2719 30.1262 24.8848 29.8524 23.5023 30.7286C22.0092 31.6048 21.9539 33.9048 23.3917 33.9048C23.9447 33.9048 25.5484 34.069 26.9862 34.2333L29.53 34.6167V23.5548L27.0968 23.2262C25.7696 23.0071 23.7235 23.0071 22.5622 23.1714C21.6941 23.2887 20.7414 23.378 20.0861 23.4395C19.8231 23.4641 19.608 23.4843 19.4654 23.5Z" fill="#141414"/>
<path d="M23.8894 15.1762L12.9401 15.2857V12.5476H35.1152L34.9493 13.8071C34.7835 15.0111 34.7282 15.0119 23.912 15.1758M23.8894 15.1762L23.912 15.1758M23.8894 15.1762C23.897 15.1761 23.9045 15.176 23.912 15.1758M33.9539 25.6905C33.9539 18.4619 34.1198 16.3262 34.7281 15.9976C35.1152 15.7786 35.5576 14.7381 35.7235 13.8071L36 12H12L12.2765 13.8071C12.4424 14.7381 12.8848 15.7786 13.2719 15.9976C13.8802 16.3262 14.0461 18.4619 14.0461 25.6905V35H33.9539V25.6905ZM14.5991 15.8333V34.4524H17.9171V28.7571C17.9171 28.5346 17.9168 28.3198 17.9165 28.1126V28.1113C17.9131 25.209 17.9114 23.7811 18.6315 23.0793C19.3289 22.3996 20.7035 22.4012 23.4094 22.4043L23.4112 22.4043C23.6008 22.4045 23.797 22.4048 24 22.4048C24.203 22.4048 24.3992 22.4045 24.5888 22.4043L24.5906 22.4043C27.2965 22.4012 28.6711 22.3996 29.3685 23.0793C30.0886 23.7811 30.0869 25.209 30.0835 28.1113C30.0832 28.3189 30.0829 28.5341 30.0829 28.7571V34.4524H33.4009V15.8333H14.5991ZM18.47 28.9762C18.47 24.1571 18.5806 23.5 19.4654 23.5C19.608 23.4843 19.8231 23.4641 20.0861 23.4395C20.7414 23.378 21.6941 23.2887 22.5622 23.1714C23.7235 23.0071 25.7696 23.0071 27.0968 23.2262L29.53 23.5548V34.6167L26.9862 34.2333C25.5484 34.069 23.9447 33.9048 23.3917 33.9048C21.9539 33.9048 22.0092 31.6048 23.5023 30.7286C24.8848 29.8524 25.2719 30.1262 25.2719 31.9881C25.2719 32.7548 25.5484 33.3571 25.9908 33.3571C27.5945 33.3571 26.4885 28.5929 24.3318 25.9643C23.447 24.9238 23.3917 24.9238 23.7235 26.5119C23.9447 27.881 23.7788 28.2643 22.7834 28.7024C21.7327 29.1405 21.5115 29.6333 21.5668 31.8786C21.5668 34.3429 21.5115 34.4524 20.0184 34.4524H18.47V28.9762Z" stroke="#141414" stroke-width="0.75"/>
</svg>
