<svg width="48" height="48" viewBox="0 0 48 48" fill="none" xmlns="http://www.w3.org/2000/svg">
<path fill-rule="evenodd" clip-rule="evenodd" d="M33.5733 23.6308C32.6446 23.7692 32.5982 24 32.5982 29.9077V36H16.1606L15.882 23.7692L14.6747 23.6308C13.5139 23.4923 13.6532 23.3077 16.6714 20.4462L19.8289 17.4V12H29.2085L28.837 18.0462L31.7159 20.7692C34.1305 23.0769 34.4091 23.4923 33.5733 23.6308ZM20.2932 12.4615V17.5385H28.187V12.4615H20.2932ZM14.9998 23.0769L20.0146 18H28.0012L33.0161 23.0769H14.9998ZM17.8787 35.4462L19.1324 35.3077V25.6154L29.1156 25.3385V35.5385H31.9017V23.5385H16.5785V35.5846L17.8787 35.4462ZM28.6513 35.5385H27.3976C26.1439 35.5385 26.0974 35.4462 26.051 33.0923C26.051 30.8308 24.8902 27.6923 24.0543 27.6923C23.8686 27.6923 23.8222 28.3385 23.915 29.1692C24.1008 30.3231 24.0079 30.5538 23.4507 30.3231C22.3827 29.9538 21.5005 31.8923 21.872 33.8769C22.1506 35.4462 22.1041 35.5385 20.9897 35.5385H19.8289V25.8462H28.6513V35.5385ZM24.7509 31.8462C24.1008 31.8462 22.6149 33.7385 22.6149 34.6154C22.6149 34.8462 23.265 35.0769 24.0079 35.0769C25.3081 35.0769 25.4009 34.9385 25.4009 33.4615C25.4009 32.4 25.1688 31.8462 24.7509 31.8462Z" fill="#141414" stroke="#141414" stroke-width="0.75"/>
</svg>
