<svg width="48" height="48" viewBox="0 0 48 48" fill="none" xmlns="http://www.w3.org/2000/svg">
<path d="M16.0029 19.884L23.9999 23.882L31.9969 19.884C31.9673 19.3744 31.744 18.8955 31.3728 18.5452C31.0015 18.195 30.5103 17.9999 29.9999 18H17.9999C17.4895 17.9999 16.9984 18.195 16.6271 18.5452C16.2558 18.8955 16.0325 19.3744 16.0029 19.884Z" fill="#141414"/>
<path d="M32 22.118L24 26.118L16 22.118V28C16 28.5304 16.2107 29.0391 16.5858 29.4142C16.9609 29.7893 17.4696 30 18 30H30C30.5304 30 31.0391 29.7893 31.4142 29.4142C31.7893 29.0391 32 28.5304 32 28V22.118Z" fill="#141414"/>
</svg>
