<svg width="48" height="48" viewBox="0 0 48 48" fill="none" xmlns="http://www.w3.org/2000/svg">
<rect width="48" height="48" rx="24" fill="#FC2F1E"/>
<path fill-rule="evenodd" clip-rule="evenodd" d="M18.2928 18.3053C18.4803 18.1178 18.7346 18.0125 18.9998 18.0125C19.265 18.0125 19.5193 18.1178 19.7068 18.3053L23.9998 22.5983L28.2928 18.3053C28.385 18.2098 28.4954 18.1336 28.6174 18.0812C28.7394 18.0288 28.8706 18.0012 29.0034 18C29.1362 17.9989 29.2678 18.0242 29.3907 18.0745C29.5136 18.1247 29.6253 18.199 29.7192 18.2929C29.8131 18.3868 29.8873 18.4984 29.9376 18.6213C29.9879 18.7442 30.0132 18.8759 30.012 19.0087C30.0109 19.1415 29.9833 19.2727 29.9309 19.3947C29.8785 19.5167 29.8023 19.627 29.7068 19.7193L25.4138 24.0123L29.7068 28.3053C29.8889 28.4939 29.9897 28.7465 29.9875 29.0087C29.9852 29.2709 29.88 29.5217 29.6946 29.7071C29.5092 29.8925 29.2584 29.9977 28.9962 30C28.734 30.0022 28.4814 29.9014 28.2928 29.7193L23.9998 25.4263L19.7068 29.7193C19.5182 29.9014 19.2656 30.0022 19.0034 30C18.7412 29.9977 18.4904 29.8925 18.305 29.7071C18.1196 29.5217 18.0144 29.2709 18.0121 29.0087C18.0098 28.7465 18.1106 28.4939 18.2928 28.3053L22.5858 24.0123L18.2928 19.7193C18.1053 19.5318 18 19.2775 18 19.0123C18 18.7471 18.1053 18.4928 18.2928 18.3053Z" fill="#FEFEFF"/>
</svg>
