<svg width="56" height="56" viewBox="0 0 56 56" fill="none" xmlns="http://www.w3.org/2000/svg">
<rect width="56" height="56" rx="28" fill="#F7752A"/>
<path d="M23 21C22.4696 21 21.9609 21.2107 21.5858 21.5858C21.2107 21.9609 21 22.4696 21 23V25C21 25.5304 21.2107 26.0391 21.5858 26.4142C21.9609 26.7893 22.4696 27 23 27H25C25.5304 27 26.0391 26.7893 26.4142 26.4142C26.7893 26.0391 27 25.5304 27 25V23C27 22.4696 26.7893 21.9609 26.4142 21.5858C26.0391 21.2107 25.5304 21 25 21H23ZM23 29C22.4696 29 21.9609 29.2107 21.5858 29.5858C21.2107 29.9609 21 30.4696 21 31V33C21 33.5304 21.2107 34.0391 21.5858 34.4142C21.9609 34.7893 22.4696 35 23 35H25C25.5304 35 26.0391 34.7893 26.4142 34.4142C26.7893 34.0391 27 33.5304 27 33V31C27 30.4696 26.7893 29.9609 26.4142 29.5858C26.0391 29.2107 25.5304 29 25 29H23ZM29 23C29 22.4696 29.2107 21.9609 29.5858 21.5858C29.9609 21.2107 30.4696 21 31 21H33C33.5304 21 34.0391 21.2107 34.4142 21.5858C34.7893 21.9609 35 22.4696 35 23V25C35 25.5304 34.7893 26.0391 34.4142 26.4142C34.0391 26.7893 33.5304 27 33 27H31C30.4696 27 29.9609 26.7893 29.5858 26.4142C29.2107 26.0391 29 25.5304 29 25V23ZM29 31C29 30.4696 29.2107 29.9609 29.5858 29.5858C29.9609 29.2107 30.4696 29 31 29H33C33.5304 29 34.0391 29.2107 34.4142 29.5858C34.7893 29.9609 35 30.4696 35 31V33C35 33.5304 34.7893 34.0391 34.4142 34.4142C34.0391 34.7893 33.5304 35 33 35H31C30.4696 35 29.9609 34.7893 29.5858 34.4142C29.2107 34.0391 29 33.5304 29 33V31Z" fill="#FEFEFF"/>
</svg>
