<svg width="56" height="56" viewBox="0 0 56 56" fill="none" xmlns="http://www.w3.org/2000/svg">
<rect x="1" y="1" width="54" height="54" rx="27" stroke="#F7752A" stroke-width="2"/>
<path fill-rule="evenodd" clip-rule="evenodd" d="M21 23C21 22.7348 21.1054 22.4804 21.2929 22.2929C21.4804 22.1054 21.7348 22 22 22H34C34.2652 22 34.5196 22.1054 34.7071 22.2929C34.8946 22.4804 35 22.7348 35 23C35 23.2652 34.8946 23.5196 34.7071 23.7071C34.5196 23.8946 34.2652 24 34 24H22C21.7348 24 21.4804 23.8946 21.2929 23.7071C21.1054 23.5196 21 23.2652 21 23ZM21 28C21 27.7348 21.1054 27.4804 21.2929 27.2929C21.4804 27.1054 21.7348 27 22 27H34C34.2652 27 34.5196 27.1054 34.7071 27.2929C34.8946 27.4804 35 27.7348 35 28C35 28.2652 34.8946 28.5196 34.7071 28.7071C34.5196 28.8946 34.2652 29 34 29H22C21.7348 29 21.4804 28.8946 21.2929 28.7071C21.1054 28.5196 21 28.2652 21 28ZM21 33C21 32.7348 21.1054 32.4804 21.2929 32.2929C21.4804 32.1054 21.7348 32 22 32H34C34.2652 32 34.5196 32.1054 34.7071 32.2929C34.8946 32.4804 35 32.7348 35 33C35 33.2652 34.8946 33.5196 34.7071 33.7071C34.5196 33.8946 34.2652 34 34 34H22C21.7348 34 21.4804 33.8946 21.2929 33.7071C21.1054 33.5196 21 33.2652 21 33Z" fill="#F7752A"/>
</svg>
