<svg width="56" height="56" viewBox="0 0 56 56" fill="none" xmlns="http://www.w3.org/2000/svg">
<rect x="1" y="1" width="54" height="54" rx="27" stroke="#F7752A" stroke-width="2"/>
<path fill-rule="evenodd" clip-rule="evenodd" d="M27.9997 20C28.2649 20 28.5193 20.1054 28.7068 20.2929C28.8944 20.4804 28.9997 20.7348 28.9997 21V22.323L32.9537 23.905L34.5527 23.105C34.7901 22.9864 35.0648 22.967 35.3165 23.0511C35.5682 23.1351 35.7762 23.3156 35.8947 23.553C36.0133 23.7904 36.0327 24.0651 35.9486 24.3168C35.8646 24.5685 35.6841 24.7764 35.4467 24.895L34.2137 25.511L35.9517 30.931C36.0106 31.1149 36.0151 31.3118 35.9645 31.4982C35.9139 31.6845 35.8105 31.8522 35.6667 31.981C34.9339 32.6381 33.984 33.001 32.9997 33C32.0154 33.001 31.0655 32.6381 30.3327 31.981C30.1889 31.8522 30.0855 31.6845 30.0349 31.4982C29.9843 31.3118 29.9888 31.1149 30.0477 30.931L31.7627 25.582L28.9997 24.477V34H30.9997C31.2649 34 31.5193 34.1054 31.7068 34.2929C31.8944 34.4804 31.9997 34.7348 31.9997 35C31.9997 35.2652 31.8944 35.5196 31.7068 35.7071C31.5193 35.8946 31.2649 36 30.9997 36H24.9997C24.7345 36 24.4801 35.8946 24.2926 35.7071C24.1051 35.5196 23.9997 35.2652 23.9997 35C23.9997 34.7348 24.1051 34.4804 24.2926 34.2929C24.4801 34.1054 24.7345 34 24.9997 34H26.9997V24.477L24.2367 25.582L25.9517 30.931C26.0106 31.1149 26.0151 31.3118 25.9645 31.4982C25.9139 31.6845 25.8105 31.8522 25.6667 31.981C24.9339 32.6381 23.984 33.001 22.9997 33C22.0154 33.001 21.0655 32.6381 20.3327 31.981C20.1889 31.8522 20.0855 31.6845 20.0349 31.4982C19.9843 31.3118 19.9888 31.1149 20.0477 30.931L21.7857 25.511L20.5527 24.894C20.324 24.7707 20.1523 24.5631 20.0739 24.3154C19.9955 24.0676 20.0167 23.799 20.1329 23.5666C20.2491 23.3342 20.4513 23.1561 20.6965 23.0701C20.9417 22.9842 21.2108 22.997 21.4467 23.106L23.0457 23.905L26.9997 22.323V21C26.9997 20.7348 27.1051 20.4804 27.2926 20.2929C27.4801 20.1054 27.7345 20 27.9997 20ZM22.9997 28.274L22.1817 30.826C22.4317 30.938 22.7077 31 22.9997 31C23.2917 31 23.5687 30.938 23.8177 30.826L22.9997 28.274ZM32.9997 28.274L32.1817 30.826C32.4317 30.938 32.7077 31 32.9997 31C33.2917 31 33.5687 30.938 33.8177 30.826L32.9997 28.274Z" fill="#F7752A"/>
</svg>
