<svg width="56" height="56" viewBox="0 0 56 56" fill="none" xmlns="http://www.w3.org/2000/svg">
<g opacity="0.5">
<rect x="1" y="1" width="54" height="54" rx="27" stroke="#F7752A" stroke-width="2"/>
<path d="M27.4826 21.6908C27.7826 20.7697 29.0856 20.7697 29.3846 21.6908L30.4546 24.9827C30.5199 25.1832 30.647 25.3579 30.8176 25.4819C30.9883 25.6058 31.1937 25.6726 31.4046 25.6727H34.8666C35.8356 25.6727 36.2376 26.9127 35.4546 27.4827L32.6546 29.5168C32.4836 29.6408 32.3563 29.8158 32.2909 30.0166C32.2255 30.2174 32.2254 30.4338 32.2906 30.6348L33.3606 33.9268C33.6606 34.8477 32.6056 35.6147 31.8206 35.0448L29.0206 33.0107C28.8498 32.8868 28.6441 32.82 28.4331 32.82C28.222 32.82 28.0164 32.8868 27.8456 33.0107L25.0456 35.0448C24.2616 35.6147 23.2076 34.8477 23.5066 33.9268L24.5766 30.6348C24.6417 30.4338 24.6416 30.2174 24.5762 30.0166C24.5108 29.8158 24.3835 29.6408 24.2126 29.5168L21.4136 27.4838C20.6306 26.9138 21.0336 25.6737 22.0016 25.6737H25.4626C25.6736 25.6738 25.8793 25.6071 26.0501 25.4831C26.2209 25.3592 26.3481 25.1844 26.4136 24.9837L27.4836 21.6917L27.4826 21.6908Z" fill="#F7752A"/>
</g>
</svg>
