<svg width="56" height="56" viewBox="0 0 56 56" fill="none" xmlns="http://www.w3.org/2000/svg">
<rect width="56" height="56" rx="28" fill="#F7752A"/>
<path d="M21 20C20.7348 20 20.4804 20.1054 20.2929 20.2929C20.1054 20.4804 20 20.7348 20 21C20 21.2652 20.1054 21.5196 20.2929 21.7071C20.4804 21.8946 20.7348 22 21 22H22.22L22.525 23.222C22.528 23.2361 22.5314 23.2501 22.535 23.264L23.893 28.694L23 29.586C21.74 30.846 22.632 33 24.414 33H33C33.2652 33 33.5196 32.8946 33.7071 32.7071C33.8946 32.5196 34 32.2652 34 32C34 31.7348 33.8946 31.4804 33.7071 31.2929C33.5196 31.1054 33.2652 31 33 31H24.414L25.414 30H32C32.1857 29.9999 32.3676 29.9481 32.5255 29.8504C32.6834 29.7528 32.811 29.6131 32.894 29.447L35.894 23.447C35.9702 23.2946 36.0061 23.1252 35.9985 22.955C35.9908 22.7848 35.9398 22.6194 35.8502 22.4744C35.7606 22.3294 35.6355 22.2098 35.4867 22.1267C35.3379 22.0437 35.1704 22.0001 35 22H24.28L23.97 20.757C23.9158 20.5408 23.791 20.3488 23.6152 20.2117C23.4395 20.0745 23.2229 20 23 20H21ZM34 35.5C34 35.8978 33.842 36.2794 33.5607 36.5607C33.2794 36.842 32.8978 37 32.5 37C32.1022 37 31.7206 36.842 31.4393 36.5607C31.158 36.2794 31 35.8978 31 35.5C31 35.1022 31.158 34.7206 31.4393 34.4393C31.7206 34.158 32.1022 34 32.5 34C32.8978 34 33.2794 34.158 33.5607 34.4393C33.842 34.7206 34 35.1022 34 35.5ZM24.5 37C24.8978 37 25.2794 36.842 25.5607 36.5607C25.842 36.2794 26 35.8978 26 35.5C26 35.1022 25.842 34.7206 25.5607 34.4393C25.2794 34.158 24.8978 34 24.5 34C24.1022 34 23.7206 34.158 23.4393 34.4393C23.158 34.7206 23 35.1022 23 35.5C23 35.8978 23.158 36.2794 23.4393 36.5607C23.7206 36.842 24.1022 37 24.5 37Z" fill="#FEFEFF"/>
</svg>
